<?xml version="1.0" encoding="utf-8" standalone="no"?>
<!DOCTYPE svg PUBLIC "-//W3C//DTD SVG 1.1//EN"
  "http://www.w3.org/Graphics/SVG/1.1/DTD/svg11.dtd">
<svg xmlns:xlink="http://www.w3.org/1999/xlink" width="504pt" height="168pt" viewBox="0 0 504 168" xmlns="http://www.w3.org/2000/svg" version="1.1">
 <metadata>
  <rdf:RDF xmlns:dc="http://purl.org/dc/elements/1.1/" xmlns:cc="http://creativecommons.org/ns#" xmlns:rdf="http://www.w3.org/1999/02/22-rdf-syntax-ns#">
   <cc:Work>
    <dc:type rdf:resource="http://purl.org/dc/dcmitype/StillImage"/>
    <dc:date>2025-07-08T12:42:31.327976</dc:date>
    <dc:format>image/svg+xml</dc:format>
    <dc:creator>
     <cc:Agent>
      <dc:title>Matplotlib v3.10.3, https://matplotlib.org/</dc:title>
     </cc:Agent>
    </dc:creator>
   </cc:Work>
  </rdf:RDF>
 </metadata>
 <defs>
  <style type="text/css">*{stroke-linejoin: round; stroke-linecap: butt}</style>
 </defs>
 <g id="figure_1">
  <g id="patch_1">
   <path d="M 0 168 
L 504 168 
L 504 0 
L 0 0 
L 0 168 
z
" style="fill: none"/>
  </g>
  <g id="axes_1">
   <g id="patch_2">
    <path d="M 39.398689 143.234592 
L 166.440584 143.234592 
L 166.440584 13.09024 
L 39.398689 13.09024 
L 39.398689 143.234592 
z
" style="fill: none"/>
   </g>
   <g id="line2d_1">
    <path d="M 43.554265 77.807757 
L 47.353649 70.757129 
L 51.153032 64.172658 
L 54.833685 58.238485 
L 58.395608 52.912274 
L 61.838799 48.153054 
L 65.16326 43.921221 
L 68.487721 40.046289 
L 71.693451 36.647756 
L 74.78045 33.68875 
L 77.86745 31.037481 
L 80.835718 28.778394 
L 83.685256 26.877346 
L 86.534794 25.238512 
L 89.265601 23.914015 
L 91.996408 22.830336 
L 94.727215 21.987475 
L 97.339292 21.406599 
L 99.951368 21.046056 
L 102.563444 20.905844 
L 105.175521 20.985965 
L 107.787597 21.286418 
L 110.399673 21.807203 
L 113.01175 22.54832 
L 115.742557 23.558707 
L 118.473364 24.809911 
L 121.204171 26.301933 
L 124.053709 28.115576 
L 126.903247 30.191433 
L 129.871515 32.632613 
L 132.839784 35.358313 
L 135.926783 38.494859 
L 139.132513 42.07776 
L 142.338243 45.992525 
L 145.662704 50.40281 
L 149.105896 55.346853 
L 152.667818 60.864261 
L 156.22974 66.791378 
L 159.910394 73.346487 
L 162.285008 77.807757 
L 162.285008 77.807757 
" clip-path="url(#p90db0dae57)" style="fill: none; stroke: #000000; stroke-opacity: 0.125; stroke-width: 1.05; stroke-linecap: square"/>
   </g>
   <g id="line2d_2">
    <path d="M 43.554265 77.807757 
L 43.910457 77.591817 
L 44.979034 76.58869 
L 47.353649 73.980785 
L 58.989261 60.859179 
L 63.144837 56.642187 
L 66.944221 53.095626 
L 70.624874 49.963247 
L 74.068066 47.31601 
L 77.392527 45.027976 
L 80.716988 43.009164 
L 83.922718 41.321745 
L 87.009717 39.940503 
L 90.096716 38.800645 
L 93.064985 37.933904 
L 96.033253 37.293139 
L 99.001522 36.879187 
L 101.969791 36.692578 
L 104.938059 36.733546 
L 107.906328 37.002041 
L 110.874596 37.497722 
L 113.842865 38.219952 
L 116.811134 39.167775 
L 119.898133 40.391412 
L 122.985132 41.855711 
L 126.190862 43.628404 
L 129.396592 45.65446 
L 132.721053 48.018394 
L 136.164245 50.742138 
L 139.726167 53.844884 
L 143.525551 57.458411 
L 147.562396 61.614703 
L 152.074164 66.58958 
L 161.810085 77.494509 
L 162.285008 77.807757 
L 162.285008 77.807757 
" clip-path="url(#p90db0dae57)" style="fill: none; stroke: #000000; stroke-opacity: 0.25; stroke-width: 1.05; stroke-linecap: square"/>
   </g>
   <g id="line2d_3">
    <path d="M 43.554265 77.807757 
L 43.910457 78.056675 
L 44.504111 78.122524 
L 45.453957 77.95862 
L 46.759995 77.479944 
L 48.659687 76.515301 
L 51.390494 74.846342 
L 56.020993 71.710257 
L 64.925799 65.670984 
L 69.675028 62.735398 
L 73.949335 60.350137 
L 77.98618 58.353508 
L 81.785564 56.720871 
L 85.466217 55.379812 
L 89.02814 54.315922 
L 92.471331 53.511961 
L 95.914523 52.932711 
L 99.357714 52.580916 
L 102.800906 52.458189 
L 106.244097 52.565085 
L 109.687289 52.901123 
L 113.130481 53.46476 
L 116.573672 54.253337 
L 120.135594 55.301649 
L 123.697517 56.580578 
L 127.37817 58.136034 
L 131.296284 60.040305 
L 135.33313 62.251167 
L 139.726167 64.912089 
L 144.95032 68.352025 
L 156.942125 76.38043 
L 159.079278 77.479944 
L 160.504047 77.990192 
L 161.453893 78.124296 
L 162.047547 78.010209 
L 162.285008 77.807757 
L 162.285008 77.807757 
" clip-path="url(#p90db0dae57)" style="fill: none; stroke: #000000; stroke-opacity: 0.375; stroke-width: 1.05; stroke-linecap: square"/>
   </g>
   <g id="line2d_4">
    <path d="M 43.554265 77.807757 
L 43.910457 78.521533 
L 44.504111 79.183087 
L 45.335226 79.762921 
L 46.403803 80.207455 
L 47.709841 80.479818 
L 49.25334 80.557155 
L 51.153032 80.41314 
L 53.527647 79.98957 
L 56.495916 79.220533 
L 60.651492 77.895075 
L 78.936026 71.787785 
L 83.803987 70.531331 
L 88.315755 69.59126 
L 92.708793 68.903519 
L 96.983099 68.462225 
L 101.138675 68.255661 
L 105.294251 68.271584 
L 109.449827 68.509758 
L 113.724134 68.982807 
L 117.998441 69.679348 
L 122.510209 70.64331 
L 127.259439 71.888705 
L 132.602322 73.528703 
L 139.488706 75.895103 
L 148.393511 78.936831 
L 151.955434 79.908976 
L 154.56751 80.397509 
L 156.585933 80.557155 
L 158.248163 80.464223 
L 159.554201 80.169872 
L 160.622778 79.695829 
L 161.453893 79.073645 
L 162.047547 78.338595 
L 162.285008 77.807757 
L 162.285008 77.807757 
" clip-path="url(#p90db0dae57)" style="fill: none; stroke: #000000; stroke-opacity: 0.5; stroke-width: 1.05; stroke-linecap: square"/>
   </g>
   <g id="line2d_5">
    <path d="M 43.554265 77.807757 
L 43.910457 78.753962 
L 44.622841 79.868808 
L 45.453957 80.759455 
L 46.522533 81.573069 
L 47.709841 82.206449 
L 49.13461 82.716036 
L 50.79684 83.070141 
L 52.815263 83.255527 
L 55.189878 83.233473 
L 58.039415 82.973693 
L 61.720069 82.39791 
L 66.944221 81.332243 
L 82.260487 78.08872 
L 87.840832 77.196738 
L 92.946254 76.600213 
L 97.814215 76.249639 
L 102.682175 76.124018 
L 107.431405 76.222126 
L 112.299365 76.545731 
L 117.286057 77.100182 
L 122.62894 77.920961 
L 128.684208 79.083897 
L 138.301398 81.201712 
L 144.712858 82.50403 
L 148.512242 83.057392 
L 151.36178 83.262182 
L 153.736395 83.215376 
L 155.636087 82.968211 
L 157.298317 82.531047 
L 158.723086 81.918445 
L 159.910394 81.156826 
L 160.860239 80.287555 
L 161.572624 79.372224 
L 162.047547 78.502788 
L 162.285008 77.807757 
L 162.285008 77.807757 
" clip-path="url(#p90db0dae57)" style="fill: none; stroke: #000000; stroke-opacity: 0.5625; stroke-width: 1.05; stroke-linecap: square"/>
   </g>
   <g id="line2d_6">
    <path d="M 43.554265 77.807757 
L 43.910457 78.986391 
L 44.622841 80.453259 
L 45.572687 81.845151 
L 46.641264 83.019264 
L 47.947302 84.109291 
L 49.372071 85.006128 
L 51.034302 85.780326 
L 52.933994 86.404599 
L 55.071147 86.863531 
L 57.564493 87.161048 
L 60.532761 87.276094 
L 64.094683 87.179508 
L 68.725182 86.817202 
L 76.32395 85.963294 
L 87.365909 84.756762 
L 94.014831 84.2645 
L 100.070099 84.03849 
L 105.887905 84.040713 
L 111.824442 84.2645 
L 118.235903 84.735314 
L 125.83467 85.528644 
L 140.20109 87.081797 
L 144.356666 87.271321 
L 147.562396 87.209172 
L 150.293203 86.937626 
L 152.549087 86.496956 
L 154.448779 85.916078 
L 156.11101 85.193667 
L 157.654509 84.277098 
L 158.960548 83.241377 
L 160.029124 82.13463 
L 160.97897 80.844174 
L 161.691355 79.541422 
L 162.166278 78.300296 
L 162.285008 77.807757 
L 162.285008 77.807757 
" clip-path="url(#p90db0dae57)" style="fill: none; stroke: #000000; stroke-opacity: 0.625; stroke-width: 1.05; stroke-linecap: square"/>
   </g>
   <g id="line2d_7">
    <path d="M 43.554265 77.807757 
L 43.910457 79.21882 
L 44.622841 81.03771 
L 45.572687 82.825287 
L 46.759995 84.544797 
L 48.066033 86.03261 
L 49.490802 87.329351 
L 51.153032 88.533381 
L 52.933994 89.549342 
L 54.952416 90.442224 
L 57.2083 91.192561 
L 59.820377 91.8141 
L 62.788645 92.279841 
L 66.231837 92.587396 
L 70.387413 92.72911 
L 75.849027 92.680422 
L 85.347487 92.331508 
L 97.339292 91.950484 
L 105.769174 91.913938 
L 114.555249 92.106681 
L 136.164245 92.718549 
L 140.438552 92.531827 
L 143.881743 92.17105 
L 146.850012 91.640887 
L 149.343357 90.979833 
L 151.599241 90.154101 
L 153.617664 89.172128 
L 155.398625 88.052036 
L 156.942125 86.82351 
L 158.366894 85.39835 
L 159.554201 83.908307 
L 160.622778 82.21087 
L 161.453893 80.497667 
L 162.047547 78.831174 
L 162.285008 77.807757 
L 162.285008 77.807757 
" clip-path="url(#p90db0dae57)" style="fill: none; stroke: #000000; stroke-opacity: 0.6875; stroke-width: 1.05; stroke-linecap: square"/>
   </g>
   <g id="line2d_8">
    <path d="M 43.554265 77.807757 
L 44.029188 79.8688 
L 44.860303 82.222337 
L 45.92888 84.504115 
L 47.116187 86.518863 
L 48.540956 88.480321 
L 50.084456 90.216485 
L 51.746686 91.756801 
L 53.646378 93.201918 
L 55.664801 94.453683 
L 57.920685 95.583952 
L 60.41403 96.575312 
L 63.144837 97.419 
L 66.231837 98.137464 
L 69.793759 98.731653 
L 73.949335 99.192644 
L 79.054757 99.524201 
L 85.703679 99.719995 
L 96.745638 99.788323 
L 121.441633 99.695874 
L 128.328016 99.445282 
L 133.433438 99.045609 
L 137.589014 98.500625 
L 141.032205 97.832915 
L 144.000474 97.043254 
L 146.731281 96.085908 
L 149.105896 95.020407 
L 151.243049 93.823073 
L 153.142741 92.51612 
L 154.923702 91.023531 
L 156.467202 89.457388 
L 157.891971 87.71222 
L 159.198009 85.763177 
L 160.266586 83.805422 
L 161.216432 81.622161 
L 161.928816 79.451249 
L 162.285008 77.807757 
L 162.285008 77.807757 
" clip-path="url(#p90db0dae57)" style="fill: none; stroke: #000000; stroke-opacity: 0.75; stroke-width: 1.05; stroke-linecap: square"/>
   </g>
   <g id="line2d_9">
    <path d="M 43.554265 77.807757 
L 44.029188 80.462373 
L 44.860303 83.600499 
L 45.92888 86.73564 
L 47.234918 89.844484 
L 48.659687 92.663628 
L 50.203186 95.249024 
L 51.984148 97.786008 
L 53.883839 100.089948 
L 55.902262 102.182321 
L 58.039415 104.07886 
L 60.2953 105.792165 
L 62.788645 107.403941 
L 65.400722 108.831568 
L 68.250259 110.138504 
L 71.337259 111.311617 
L 74.78045 112.376207 
L 78.579834 113.308058 
L 82.73541 114.091358 
L 87.365909 114.730187 
L 92.471331 115.202976 
L 98.051676 115.489525 
L 103.869483 115.563651 
L 109.687289 115.416728 
L 115.148903 115.062759 
L 120.254325 114.510497 
L 124.766093 113.80441 
L 128.802939 112.95697 
L 132.483592 111.963713 
L 135.808053 110.843078 
L 138.895052 109.56886 
L 141.74459 108.147996 
L 144.356666 106.593165 
L 146.731281 104.92385 
L 148.987165 103.061712 
L 151.005588 101.115281 
L 152.90528 98.98357 
L 154.686241 96.653622 
L 156.348471 94.107134 
L 157.891971 91.315148 
L 159.198009 88.50709 
L 160.385317 85.427513 
L 161.335162 82.364776 
L 162.047547 79.323754 
L 162.285008 77.807757 
L 162.285008 77.807757 
" clip-path="url(#p90db0dae57)" style="fill: none; stroke: #000000; stroke-opacity: 0.875; stroke-width: 1.05; stroke-linecap: square"/>
   </g>
   <g id="line2d_10">
    <path d="M 43.554265 77.807757 
L 44.029188 81.055945 
L 44.860303 84.978662 
L 45.92888 88.967166 
L 47.234918 92.990164 
L 48.778417 96.985316 
L 50.440648 100.652201 
L 52.221609 104.042885 
L 54.121301 107.186964 
L 56.139724 110.102995 
L 58.276877 112.803641 
L 60.532761 115.298259 
L 62.907376 117.594296 
L 65.400722 119.698062 
L 68.012798 121.61515 
L 70.743605 123.350648 
L 73.711874 124.969067 
L 76.798873 126.396303 
L 80.004603 127.638434 
L 83.447795 128.73421 
L 87.009717 129.638323 
L 90.809101 130.37306 
L 94.727215 130.905369 
L 98.764061 131.231842 
L 102.919637 131.343693 
L 107.075213 131.231842 
L 111.112058 130.905369 
L 115.030172 130.37306 
L 118.829556 129.638323 
L 122.510209 128.700206 
L 125.953401 127.596422 
L 129.277862 126.294968 
L 132.364861 124.848943 
L 135.33313 123.20964 
L 138.063937 121.451843 
L 140.676013 119.50991 
L 143.169359 117.378334 
L 145.543974 115.051 
L 147.799858 112.520927 
L 149.937011 109.779774 
L 151.955434 106.816939 
L 153.855126 103.617936 
L 155.636087 100.161349 
L 157.179586 96.70071 
L 158.604355 92.990164 
L 159.910394 88.967166 
L 160.97897 84.978662 
L 161.810085 81.055945 
L 162.285008 77.807757 
L 162.285008 77.807757 
" clip-path="url(#p90db0dae57)" style="fill: none; stroke: #000000; stroke-width: 1.05; stroke-linecap: square"/>
   </g>
   <g id="matplotlib.axis_1">
    <g id="xtick_1">
     <g id="line2d_11">
      <defs>
       <path id="m9d091e621e" d="M 0 0 
L 0 2.45 
" style="stroke: #000000; stroke-width: 0.56"/>
      </defs>
      <g>
       <use xlink:href="#m9d091e621e" x="43.554265" y="143.234592" style="stroke: #000000; stroke-width: 0.56"/>
      </g>
     </g>
     <g id="text_1">
      <text style="font-size: 7px; font-family: 'DejaVu Sans', 'Bitstream Vera Sans', 'Computer Modern Sans Serif', 'Lucida Grande', 'Verdana', 'Geneva', 'Lucid', 'Arial', 'Helvetica', 'Avant Garde', sans-serif; text-anchor: middle" x="43.554265" y="153.453499" transform="rotate(-0 43.554265 153.453499)">−1.0</text>
     </g>
    </g>
    <g id="xtick_2">
     <g id="line2d_12">
      <g>
       <use xlink:href="#m9d091e621e" x="73.236951" y="143.234592" style="stroke: #000000; stroke-width: 0.56"/>
      </g>
     </g>
     <g id="text_2">
      <text style="font-size: 7px; font-family: 'DejaVu Sans', 'Bitstream Vera Sans', 'Computer Modern Sans Serif', 'Lucida Grande', 'Verdana', 'Geneva', 'Lucid', 'Arial', 'Helvetica', 'Avant Garde', sans-serif; text-anchor: middle" x="73.236951" y="153.453499" transform="rotate(-0 73.236951 153.453499)">−0.5</text>
     </g>
    </g>
    <g id="xtick_3">
     <g id="line2d_13">
      <g>
       <use xlink:href="#m9d091e621e" x="102.919637" y="143.234592" style="stroke: #000000; stroke-width: 0.56"/>
      </g>
     </g>
     <g id="text_3">
      <text style="font-size: 7px; font-family: 'DejaVu Sans', 'Bitstream Vera Sans', 'Computer Modern Sans Serif', 'Lucida Grande', 'Verdana', 'Geneva', 'Lucid', 'Arial', 'Helvetica', 'Avant Garde', sans-serif; text-anchor: middle" x="102.919637" y="153.453499" transform="rotate(-0 102.919637 153.453499)">0.0</text>
     </g>
    </g>
    <g id="xtick_4">
     <g id="line2d_14">
      <g>
       <use xlink:href="#m9d091e621e" x="132.602322" y="143.234592" style="stroke: #000000; stroke-width: 0.56"/>
      </g>
     </g>
     <g id="text_4">
      <text style="font-size: 7px; font-family: 'DejaVu Sans', 'Bitstream Vera Sans', 'Computer Modern Sans Serif', 'Lucida Grande', 'Verdana', 'Geneva', 'Lucid', 'Arial', 'Helvetica', 'Avant Garde', sans-serif; text-anchor: middle" x="132.602322" y="153.453499" transform="rotate(-0 132.602322 153.453499)">0.5</text>
     </g>
    </g>
    <g id="xtick_5">
     <g id="line2d_15">
      <g>
       <use xlink:href="#m9d091e621e" x="162.285008" y="143.234592" style="stroke: #000000; stroke-width: 0.56"/>
      </g>
     </g>
     <g id="text_5">
      <text style="font-size: 7px; font-family: 'DejaVu Sans', 'Bitstream Vera Sans', 'Computer Modern Sans Serif', 'Lucida Grande', 'Verdana', 'Geneva', 'Lucid', 'Arial', 'Helvetica', 'Avant Garde', sans-serif; text-anchor: middle" x="162.285008" y="153.453499" transform="rotate(-0 162.285008 153.453499)">1.0</text>
     </g>
    </g>
   </g>
   <g id="matplotlib.axis_2">
    <g id="ytick_1">
     <g id="line2d_16">
      <defs>
       <path id="m6b7c94fd4d" d="M 0 0 
L -2.45 0 
" style="stroke: #000000; stroke-width: 0.56"/>
      </defs>
      <g>
       <use xlink:href="#m6b7c94fd4d" x="39.398689" y="134.711719" style="stroke: #000000; stroke-width: 0.56"/>
      </g>
     </g>
     <g id="text_6">
      <text style="font-size: 7px; font-family: 'DejaVu Sans', 'Bitstream Vera Sans', 'Computer Modern Sans Serif', 'Lucida Grande', 'Verdana', 'Geneva', 'Lucid', 'Arial', 'Helvetica', 'Avant Garde', sans-serif; text-anchor: end" x="34.498689" y="137.371172" transform="rotate(-0 34.498689 137.371172)">−1.0</text>
     </g>
    </g>
    <g id="ytick_2">
     <g id="line2d_17">
      <g>
       <use xlink:href="#m6b7c94fd4d" x="39.398689" y="111.950134" style="stroke: #000000; stroke-width: 0.56"/>
      </g>
     </g>
     <g id="text_7">
      <text style="font-size: 7px; font-family: 'DejaVu Sans', 'Bitstream Vera Sans', 'Computer Modern Sans Serif', 'Lucida Grande', 'Verdana', 'Geneva', 'Lucid', 'Arial', 'Helvetica', 'Avant Garde', sans-serif; text-anchor: end" x="34.498689" y="114.609587" transform="rotate(-0 34.498689 114.609587)">−0.8</text>
     </g>
    </g>
    <g id="ytick_3">
     <g id="line2d_18">
      <g>
       <use xlink:href="#m6b7c94fd4d" x="39.398689" y="89.18855" style="stroke: #000000; stroke-width: 0.56"/>
      </g>
     </g>
     <g id="text_8">
      <text style="font-size: 7px; font-family: 'DejaVu Sans', 'Bitstream Vera Sans', 'Computer Modern Sans Serif', 'Lucida Grande', 'Verdana', 'Geneva', 'Lucid', 'Arial', 'Helvetica', 'Avant Garde', sans-serif; text-anchor: end" x="34.498689" y="91.848003" transform="rotate(-0 34.498689 91.848003)">−0.6</text>
     </g>
    </g>
    <g id="ytick_4">
     <g id="line2d_19">
      <g>
       <use xlink:href="#m6b7c94fd4d" x="39.398689" y="66.426965" style="stroke: #000000; stroke-width: 0.56"/>
      </g>
     </g>
     <g id="text_9">
      <text style="font-size: 7px; font-family: 'DejaVu Sans', 'Bitstream Vera Sans', 'Computer Modern Sans Serif', 'Lucida Grande', 'Verdana', 'Geneva', 'Lucid', 'Arial', 'Helvetica', 'Avant Garde', sans-serif; text-anchor: end" x="34.498689" y="69.086418" transform="rotate(-0 34.498689 69.086418)">−0.4</text>
     </g>
    </g>
    <g id="ytick_5">
     <g id="line2d_20">
      <g>
       <use xlink:href="#m6b7c94fd4d" x="39.398689" y="43.66538" style="stroke: #000000; stroke-width: 0.56"/>
      </g>
     </g>
     <g id="text_10">
      <text style="font-size: 7px; font-family: 'DejaVu Sans', 'Bitstream Vera Sans', 'Computer Modern Sans Serif', 'Lucida Grande', 'Verdana', 'Geneva', 'Lucid', 'Arial', 'Helvetica', 'Avant Garde', sans-serif; text-anchor: end" x="34.498689" y="46.324834" transform="rotate(-0 34.498689 46.324834)">−0.2</text>
     </g>
    </g>
    <g id="ytick_6">
     <g id="line2d_21">
      <g>
       <use xlink:href="#m6b7c94fd4d" x="39.398689" y="20.903796" style="stroke: #000000; stroke-width: 0.56"/>
      </g>
     </g>
     <g id="text_11">
      <text style="font-size: 7px; font-family: 'DejaVu Sans', 'Bitstream Vera Sans', 'Computer Modern Sans Serif', 'Lucida Grande', 'Verdana', 'Geneva', 'Lucid', 'Arial', 'Helvetica', 'Avant Garde', sans-serif; text-anchor: end" x="34.498689" y="23.563249" transform="rotate(-0 34.498689 23.563249)">0.0</text>
     </g>
    </g>
   </g>
   <g id="line2d_22">
    <path d="M 43.554265 77.807757 
L 102.919637 20.903796 
L 162.285008 77.807757 
" clip-path="url(#p90db0dae57)" style="fill: none"/>
    <defs>
     <path id="m24f96156d0" d="M 0 1.25 
C 0.331504 1.25 0.649475 1.118292 0.883883 0.883883 
C 1.118292 0.649475 1.25 0.331504 1.25 0 
C 1.25 -0.331504 1.118292 -0.649475 0.883883 -0.883883 
C 0.649475 -1.118292 0.331504 -1.25 0 -1.25 
C -0.331504 -1.25 -0.649475 -1.118292 -0.883883 -0.883883 
C -1.118292 -0.649475 -1.25 -0.331504 -1.25 0 
C -1.25 0.331504 -1.118292 0.649475 -0.883883 0.883883 
C -0.649475 1.118292 -0.331504 1.25 0 1.25 
z
" style="stroke: #000000; stroke-width: 0.2"/>
    </defs>
    <g clip-path="url(#p90db0dae57)">
     <use xlink:href="#m24f96156d0" x="43.554265" y="77.807757" style="fill: #ffffff; stroke: #000000; stroke-width: 0.2"/>
     <use xlink:href="#m24f96156d0" x="102.919637" y="20.903796" style="fill: #ffffff; stroke: #000000; stroke-width: 0.2"/>
     <use xlink:href="#m24f96156d0" x="162.285008" y="77.807757" style="fill: #ffffff; stroke: #000000; stroke-width: 0.2"/>
    </g>
   </g>
   <g id="line2d_23">
    <path d="M 43.55966 77.808791 
L 102.919637 36.680924 
L 162.279613 77.808791 
" clip-path="url(#p90db0dae57)" style="fill: none"/>
    <g clip-path="url(#p90db0dae57)">
     <use xlink:href="#m24f96156d0" x="43.55966" y="77.808791" style="fill: #ffffff; stroke: #000000; stroke-width: 0.2"/>
     <use xlink:href="#m24f96156d0" x="102.919637" y="36.680924" style="fill: #ffffff; stroke: #000000; stroke-width: 0.2"/>
     <use xlink:href="#m24f96156d0" x="162.279613" y="77.808791" style="fill: #ffffff; stroke: #000000; stroke-width: 0.2"/>
    </g>
   </g>
   <g id="line2d_24">
    <path d="M 44.407709 78.124402 
L 102.919637 52.458052 
L 161.431564 78.124402 
" clip-path="url(#p90db0dae57)" style="fill: none"/>
    <g clip-path="url(#p90db0dae57)">
     <use xlink:href="#m24f96156d0" x="44.407709" y="78.124402" style="fill: #ffffff; stroke: #000000; stroke-width: 0.2"/>
     <use xlink:href="#m24f96156d0" x="102.919637" y="52.458052" style="fill: #ffffff; stroke: #000000; stroke-width: 0.2"/>
     <use xlink:href="#m24f96156d0" x="161.431564" y="78.124402" style="fill: #ffffff; stroke: #000000; stroke-width: 0.2"/>
    </g>
   </g>
   <g id="line2d_25">
    <path d="M 49.055517 80.558645 
L 102.919637 68.23518 
L 156.783757 80.558645 
" clip-path="url(#p90db0dae57)" style="fill: none"/>
    <g clip-path="url(#p90db0dae57)">
     <use xlink:href="#m24f96156d0" x="49.055517" y="80.558645" style="fill: #ffffff; stroke: #000000; stroke-width: 0.2"/>
     <use xlink:href="#m24f96156d0" x="102.919637" y="68.23518" style="fill: #ffffff; stroke: #000000; stroke-width: 0.2"/>
     <use xlink:href="#m24f96156d0" x="156.783757" y="80.558645" style="fill: #ffffff; stroke: #000000; stroke-width: 0.2"/>
    </g>
   </g>
   <g id="line2d_26">
    <path d="M 53.727424 83.272955 
L 102.919637 76.123745 
L 152.111849 83.272955 
" clip-path="url(#p90db0dae57)" style="fill: none"/>
    <g clip-path="url(#p90db0dae57)">
     <use xlink:href="#m24f96156d0" x="53.727424" y="83.272955" style="fill: #ffffff; stroke: #000000; stroke-width: 0.2"/>
     <use xlink:href="#m24f96156d0" x="102.919637" y="76.123745" style="fill: #ffffff; stroke: #000000; stroke-width: 0.2"/>
     <use xlink:href="#m24f96156d0" x="152.111849" y="83.272955" style="fill: #ffffff; stroke: #000000; stroke-width: 0.2"/>
    </g>
   </g>
   <g id="line2d_27">
    <path d="M 60.745778 87.276549 
L 102.919637 84.012309 
L 145.093495 87.276549 
" clip-path="url(#p90db0dae57)" style="fill: none"/>
    <g clip-path="url(#p90db0dae57)">
     <use xlink:href="#m24f96156d0" x="60.745778" y="87.276549" style="fill: #ffffff; stroke: #000000; stroke-width: 0.2"/>
     <use xlink:href="#m24f96156d0" x="102.919637" y="84.012309" style="fill: #ffffff; stroke: #000000; stroke-width: 0.2"/>
     <use xlink:href="#m24f96156d0" x="145.093495" y="87.276549" style="fill: #ffffff; stroke: #000000; stroke-width: 0.2"/>
    </g>
   </g>
   <g id="line2d_28">
    <path d="M 71.72732 92.736565 
L 102.919637 91.900873 
L 134.111954 92.736565 
" clip-path="url(#p90db0dae57)" style="fill: none"/>
    <g clip-path="url(#p90db0dae57)">
     <use xlink:href="#m24f96156d0" x="71.72732" y="92.736565" style="fill: #ffffff; stroke: #000000; stroke-width: 0.2"/>
     <use xlink:href="#m24f96156d0" x="102.919637" y="91.900873" style="fill: #ffffff; stroke: #000000; stroke-width: 0.2"/>
     <use xlink:href="#m24f96156d0" x="134.111954" y="92.736565" style="fill: #ffffff; stroke: #000000; stroke-width: 0.2"/>
    </g>
   </g>
   <g id="line2d_29">
    <path d="M 102.919637 99.789437 
L 102.919637 99.789437 
L 102.919637 99.789437 
" clip-path="url(#p90db0dae57)" style="fill: none"/>
    <g clip-path="url(#p90db0dae57)">
     <use xlink:href="#m24f96156d0" x="102.919637" y="99.789437" style="fill: #ffffff; stroke: #000000; stroke-width: 0.2"/>
     <use xlink:href="#m24f96156d0" x="102.919637" y="99.789437" style="fill: #ffffff; stroke: #000000; stroke-width: 0.2"/>
     <use xlink:href="#m24f96156d0" x="102.919637" y="99.789437" style="fill: #ffffff; stroke: #000000; stroke-width: 0.2"/>
    </g>
   </g>
   <g id="line2d_30">
    <path d="M 102.919637 115.566565 
L 102.919637 115.566565 
L 102.919637 115.566565 
" clip-path="url(#p90db0dae57)" style="fill: none"/>
    <g clip-path="url(#p90db0dae57)">
     <use xlink:href="#m24f96156d0" x="102.919637" y="115.566565" style="fill: #ffffff; stroke: #000000; stroke-width: 0.2"/>
     <use xlink:href="#m24f96156d0" x="102.919637" y="115.566565" style="fill: #ffffff; stroke: #000000; stroke-width: 0.2"/>
     <use xlink:href="#m24f96156d0" x="102.919637" y="115.566565" style="fill: #ffffff; stroke: #000000; stroke-width: 0.2"/>
    </g>
   </g>
   <g id="line2d_31">
    <path d="M 102.919637 131.343693 
L 102.919637 131.343693 
L 102.919637 131.343693 
" clip-path="url(#p90db0dae57)" style="fill: none"/>
    <g clip-path="url(#p90db0dae57)">
     <use xlink:href="#m24f96156d0" x="102.919637" y="131.343693" style="fill: #ffffff; stroke: #000000; stroke-width: 0.2"/>
     <use xlink:href="#m24f96156d0" x="102.919637" y="131.343693" style="fill: #ffffff; stroke: #000000; stroke-width: 0.2"/>
     <use xlink:href="#m24f96156d0" x="102.919637" y="131.343693" style="fill: #ffffff; stroke: #000000; stroke-width: 0.2"/>
    </g>
   </g>
   <g id="patch_3">
    <path d="M 39.398689 143.234592 
L 39.398689 13.09024 
" style="fill: none; stroke: #000000; stroke-width: 0.56; stroke-linejoin: miter; stroke-linecap: square"/>
   </g>
   <g id="patch_4">
    <path d="M 39.398689 143.234592 
L 166.440584 143.234592 
" style="fill: none; stroke: #000000; stroke-width: 0.56; stroke-linejoin: miter; stroke-linecap: square"/>
   </g>
   <g id="text_12">
    <!-- External field $\frac{h}{J}=0.00$ -->
    <g transform="translate(64.454637 8.89024)">
     <text>
      <tspan x="0" y="-0.21875" style="font-size: 7px; font-family: 'DejaVu Sans'">E</tspan>
      <tspan x="4.422852" y="-0.21875" style="font-size: 7px; font-family: 'DejaVu Sans'">x</tspan>
      <tspan x="8.56543" y="-0.21875" style="font-size: 7px; font-family: 'DejaVu Sans'">t</tspan>
      <tspan x="11.310059" y="-0.21875" style="font-size: 7px; font-family: 'DejaVu Sans'">e</tspan>
      <tspan x="15.616699" y="-0.21875" style="font-size: 7px; font-family: 'DejaVu Sans'">r</tspan>
      <tspan x="18.494629" y="-0.21875" style="font-size: 7px; font-family: 'DejaVu Sans'">n</tspan>
      <tspan x="22.931152" y="-0.21875" style="font-size: 7px; font-family: 'DejaVu Sans'">a</tspan>
      <tspan x="27.220703" y="-0.21875" style="font-size: 7px; font-family: 'DejaVu Sans'">l</tspan>
      <tspan x="29.165527" y="-0.21875" style="font-size: 7px; font-family: 'DejaVu Sans'"> </tspan>
      <tspan x="31.390625" y="-0.21875" style="font-size: 7px; font-family: 'DejaVu Sans'">f</tspan>
      <tspan x="33.85498" y="-0.21875" style="font-size: 7px; font-family: 'DejaVu Sans'">i</tspan>
      <tspan x="35.799805" y="-0.21875" style="font-size: 7px; font-family: 'DejaVu Sans'">e</tspan>
      <tspan x="40.106445" y="-0.21875" style="font-size: 7px; font-family: 'DejaVu Sans'">l</tspan>
      <tspan x="42.05127" y="-0.21875" style="font-size: 7px; font-family: 'DejaVu Sans'">d</tspan>
      <tspan x="46.494629" y="-0.21875" style="font-size: 7px; font-family: 'DejaVu Sans'"> </tspan>
      <tspan x="54.064062" y="-0.21875" style="font-size: 7px; font-family: 'DejaVu Sans'">=</tspan>
      <tspan x="61.293066" y="-0.21875" style="font-size: 7px; font-family: 'DejaVu Sans'">0</tspan>
      <tspan x="65.74668" y="-0.21875" style="font-size: 7px; font-family: 'DejaVu Sans'">.</tspan>
      <tspan x="67.971777" y="-0.21875" style="font-size: 7px; font-family: 'DejaVu Sans'">0</tspan>
      <tspan x="72.425391" y="-0.21875" style="font-size: 7px; font-family: 'DejaVu Sans'">0</tspan>
      <tspan x="48.719727" y="-3.28125" style="font-style: oblique; font-size: 4.9px; font-family: 'DejaVu Sans'">h</tspan>
      <tspan x="49.719727" y="2.482812" style="font-style: oblique; font-size: 4.9px; font-family: 'DejaVu Sans'">J</tspan>
     </text>
     <rect x="48.719727" y="-2.53125" width="3.105566" height="0.4375"/>
    </g>
   </g>
  </g>
  <g id="axes_2">
   <g id="patch_5">
    <path d="M 176.187923 143.234592 
L 303.229819 143.234592 
L 303.229819 13.09024 
L 176.187923 13.09024 
L 176.187923 143.234592 
z
" style="fill: none"/>
   </g>
   <g id="line2d_32">
    <path d="M 180.343499 72.117361 
L 184.142883 65.430918 
L 187.823536 59.39796 
L 191.385458 53.976151 
L 194.82865 49.124519 
L 198.271841 44.655737 
L 201.596302 40.704326 
L 204.802032 37.232046 
L 207.889032 34.202024 
L 210.976031 31.479739 
L 213.9443 29.152367 
L 216.912568 27.109514 
L 219.762106 25.416052 
L 222.611644 23.984804 
L 225.342451 22.859244 
L 228.073258 21.974501 
L 230.804065 21.330576 
L 233.416141 20.939987 
L 236.028218 20.76973 
L 238.640294 20.819806 
L 241.252371 21.090213 
L 243.864447 21.580953 
L 246.476523 22.292025 
L 249.20733 23.271001 
L 251.938137 24.490794 
L 254.668945 25.951405 
L 257.518482 27.732271 
L 260.36802 29.775351 
L 263.336289 32.182389 
L 266.304557 34.873946 
L 269.391557 37.974984 
L 272.597287 41.521012 
L 275.803017 45.398903 
L 279.127478 49.770948 
L 282.570669 54.675387 
L 286.132592 60.151824 
L 289.694514 66.03797 
L 293.375167 72.550742 
L 297.174551 79.732477 
L 299.074243 83.498154 
L 299.074243 83.498154 
" clip-path="url(#p5e0bf3033b)" style="fill: none; stroke: #000000; stroke-opacity: 0.125; stroke-width: 1.05; stroke-linecap: square"/>
   </g>
   <g id="line2d_33">
    <path d="M 180.343499 72.117361 
L 180.699691 71.935563 
L 181.768268 71.034863 
L 184.024152 68.778493 
L 196.015957 56.421223 
L 200.052803 52.725553 
L 203.733456 49.647246 
L 207.295378 46.952516 
L 210.738569 44.625722 
L 214.06303 42.646836 
L 217.26876 40.993363 
L 220.35576 39.641485 
L 223.442759 38.528427 
L 226.529758 37.65652 
L 229.498027 37.047253 
L 232.466296 36.66384 
L 235.434564 36.507157 
L 238.402833 36.577768 
L 241.371101 36.875944 
L 244.33937 37.401668 
L 247.307638 38.154634 
L 250.275907 39.134242 
L 253.362906 40.392467 
L 256.449906 41.893406 
L 259.655636 43.706942 
L 262.861366 45.777461 
L 266.185827 48.192377 
L 269.629018 50.975656 
L 273.190941 54.149479 
L 276.871594 57.732804 
L 280.789708 61.868848 
L 284.945284 66.587157 
L 289.694514 72.327455 
L 298.361858 82.907216 
L 299.074243 83.498154 
L 299.074243 83.498154 
" clip-path="url(#p5e0bf3033b)" style="fill: none; stroke: #000000; stroke-opacity: 0.25; stroke-width: 1.05; stroke-linecap: square"/>
   </g>
   <g id="line2d_34">
    <path d="M 180.343499 72.117361 
L 180.699691 72.400421 
L 181.293345 72.523174 
L 182.243191 72.450317 
L 183.549229 72.096829 
L 185.33019 71.369369 
L 187.942267 70.03762 
L 192.216573 67.568822 
L 201.952494 61.898897 
L 206.582993 59.490405 
L 210.738569 57.573224 
L 214.656684 56.007115 
L 218.456068 54.730967 
L 222.01799 53.763261 
L 225.579912 53.025242 
L 229.023104 52.535959 
L 232.466296 52.271154 
L 235.909487 52.23365 
L 239.352679 52.425139 
L 242.79587 52.846246 
L 246.239062 53.49656 
L 249.682253 54.374617 
L 253.125445 55.477833 
L 256.687367 56.851965 
L 260.36802 58.514567 
L 264.167404 60.480477 
L 268.085519 62.760315 
L 272.241095 65.438099 
L 276.752863 68.613439 
L 282.095746 72.657594 
L 293.493898 81.39864 
L 295.749782 82.798904 
L 297.293282 83.509876 
L 298.243128 83.735027 
L 298.836781 83.677843 
L 299.074243 83.498154 
L 299.074243 83.498154 
" clip-path="url(#p5e0bf3033b)" style="fill: none; stroke: #000000; stroke-opacity: 0.375; stroke-width: 1.05; stroke-linecap: square"/>
   </g>
   <g id="line2d_35">
    <path d="M 180.343499 72.117361 
L 180.699691 72.865279 
L 181.293345 73.583737 
L 182.12446 74.243237 
L 183.193037 74.790197 
L 184.499075 75.18775 
L 186.042575 75.413037 
L 187.942267 75.451115 
L 190.316882 75.25516 
L 193.28515 74.770643 
L 197.440726 73.843513 
L 215.725261 69.488865 
L 220.593221 68.699023 
L 225.104989 68.191422 
L 229.379296 67.928901 
L 233.653603 67.890953 
L 237.809179 68.07639 
L 241.964755 68.484271 
L 246.120331 69.114457 
L 250.394638 69.990875 
L 254.787675 71.124709 
L 259.299444 72.521141 
L 264.167404 74.267043 
L 269.629018 76.474423 
L 276.871594 79.667851 
L 285.182746 83.295674 
L 288.744668 84.609243 
L 291.356744 85.348154 
L 293.375167 85.701274 
L 295.037397 85.767672 
L 296.343436 85.59851 
L 297.412012 85.226894 
L 298.243128 84.684375 
L 298.836781 84.00623 
L 299.074243 83.498154 
L 299.074243 83.498154 
" clip-path="url(#p5e0bf3033b)" style="fill: none; stroke: #000000; stroke-opacity: 0.5; stroke-width: 1.05; stroke-linecap: square"/>
   </g>
   <g id="line2d_36">
    <path d="M 180.343499 72.117361 
L 180.699691 73.097708 
L 181.412076 74.280839 
L 182.361922 75.368093 
L 183.430498 76.252812 
L 184.736537 77.03852 
L 186.280036 77.689473 
L 188.060997 78.184049 
L 190.07942 78.511883 
L 192.572766 78.679021 
L 195.541034 78.645944 
L 199.340418 78.373259 
L 205.158224 77.70557 
L 217.624953 76.234554 
L 223.324028 75.813862 
L 228.548181 75.648901 
L 233.534872 75.715805 
L 238.402833 76.006817 
L 243.152062 76.51114 
L 248.020023 77.252425 
L 253.006714 78.237898 
L 258.349598 79.526454 
L 264.286135 81.19573 
L 272.359825 83.721751 
L 280.908439 86.347045 
L 284.945284 87.352995 
L 287.913553 87.875112 
L 290.288168 88.07977 
L 292.30659 88.032295 
L 293.968821 87.771946 
L 295.39359 87.317876 
L 296.580897 86.697986 
L 297.530743 85.956191 
L 298.243128 85.159049 
L 298.836781 84.170423 
L 299.074243 83.498154 
L 299.074243 83.498154 
" clip-path="url(#p5e0bf3033b)" style="fill: none; stroke: #000000; stroke-opacity: 0.5625; stroke-width: 1.05; stroke-linecap: square"/>
   </g>
   <g id="line2d_37">
    <path d="M 180.343499 72.117361 
L 180.699691 73.330137 
L 181.412076 74.86529 
L 182.361922 76.348229 
L 183.549229 77.748711 
L 184.855267 78.936286 
L 186.398767 80.022616 
L 188.060997 80.921233 
L 189.960689 81.698391 
L 192.216573 82.367629 
L 194.82865 82.892787 
L 197.915649 83.269094 
L 201.596302 83.48461 
L 206.464263 83.535297 
L 215.60653 83.35689 
L 224.748797 83.269653 
L 231.278988 83.430645 
L 237.334256 83.802883 
L 243.270793 84.394605 
L 249.326061 85.227549 
L 255.856252 86.359283 
L 263.929943 88.002846 
L 276.396671 90.553993 
L 280.789708 91.202968 
L 284.114169 91.478503 
L 286.844976 91.489526 
L 289.10086 91.289141 
L 291.119283 90.887139 
L 292.781513 90.340565 
L 294.325013 89.593173 
L 295.631051 88.708389 
L 296.699628 87.735369 
L 297.649474 86.581155 
L 298.361858 85.41176 
L 298.836781 84.334616 
L 299.074243 83.498154 
L 299.074243 83.498154 
" clip-path="url(#p5e0bf3033b)" style="fill: none; stroke: #000000; stroke-opacity: 0.625; stroke-width: 1.05; stroke-linecap: square"/>
   </g>
   <g id="line2d_38">
    <path d="M 180.343499 72.117361 
L 180.818422 73.92714 
L 181.649537 75.968048 
L 182.718114 77.925572 
L 183.905421 79.636418 
L 185.33019 81.284827 
L 186.87369 82.728127 
L 188.654651 84.075735 
L 190.554343 85.234617 
L 192.691496 86.279348 
L 195.066111 87.195739 
L 197.796918 88.009592 
L 201.002648 88.722749 
L 204.802032 89.327358 
L 209.551262 89.841817 
L 216.200184 90.315527 
L 237.215525 91.671887 
L 245.526677 92.512392 
L 255.025137 93.708907 
L 270.460133 95.683441 
L 275.328094 96.058244 
L 279.127478 96.139786 
L 282.333208 95.989616 
L 285.064015 95.63884 
L 287.43863 95.107421 
L 289.457052 94.43583 
L 291.238014 93.622776 
L 292.900244 92.61807 
L 294.325013 91.504511 
L 295.631051 90.202104 
L 296.818359 88.679967 
L 297.768205 87.098463 
L 298.480589 85.533171 
L 298.955512 84.069302 
L 299.074243 83.498154 
L 299.074243 83.498154 
" clip-path="url(#p5e0bf3033b)" style="fill: none; stroke: #000000; stroke-opacity: 0.6875; stroke-width: 1.05; stroke-linecap: square"/>
   </g>
   <g id="line2d_39">
    <path d="M 180.343499 72.117361 
L 180.818422 74.223927 
L 181.649537 76.657129 
L 182.718114 79.041334 
L 183.905421 81.16989 
L 185.33019 83.267918 
L 186.87369 85.152033 
L 188.654651 86.962347 
L 190.554343 88.571286 
L 192.691496 90.078074 
L 194.947381 91.398469 
L 197.440726 92.606284 
L 200.290264 93.735033 
L 203.495994 94.758575 
L 207.176647 95.692643 
L 211.450954 96.543555 
L 216.793837 97.368748 
L 223.917682 98.226914 
L 236.740602 99.504858 
L 258.943251 101.523959 
L 265.710904 101.902864 
L 270.697595 101.965367 
L 274.73444 101.799179 
L 278.177632 101.437193 
L 281.1459 100.904139 
L 283.757977 100.212363 
L 286.132592 99.349489 
L 288.269745 98.328165 
L 290.169437 97.170407 
L 291.831667 95.909162 
L 293.375167 94.468295 
L 294.799936 92.831381 
L 296.105974 90.970423 
L 297.174551 89.068593 
L 298.124397 86.903562 
L 298.836781 84.663002 
L 299.074243 83.498154 
L 299.074243 83.498154 
" clip-path="url(#p5e0bf3033b)" style="fill: none; stroke: #000000; stroke-opacity: 0.75; stroke-width: 1.05; stroke-linecap: square"/>
   </g>
   <g id="line2d_40">
    <path d="M 180.343499 72.117361 
L 180.818422 74.8175 
L 181.649537 78.035292 
L 182.718114 81.27286 
L 184.024152 84.506892 
L 185.448921 87.462606 
L 187.111151 90.389931 
L 188.892113 93.070111 
L 190.791805 95.533474 
L 192.810227 97.800242 
L 195.066111 99.992973 
L 197.440726 101.987669 
L 200.052803 103.880695 
L 202.78361 105.584361 
L 205.751878 107.174987 
L 208.957608 108.642631 
L 212.519531 110.024859 
L 216.437645 111.300359 
L 220.711952 112.455734 
L 225.461182 113.50668 
L 230.685334 114.432551 
L 236.38441 115.212101 
L 242.202217 115.785451 
L 248.020023 116.13575 
L 253.362906 116.24077 
L 258.230867 116.121842 
L 262.623904 115.79833 
L 266.542019 115.294749 
L 270.103941 114.618741 
L 273.309671 113.791499 
L 276.27794 112.799145 
L 279.008747 111.65178 
L 281.502093 110.365583 
L 283.757977 108.963767 
L 285.89513 107.382246 
L 287.913553 105.611847 
L 289.813245 103.641786 
L 291.594206 101.458212 
L 293.137706 99.22849 
L 294.562474 96.805728 
L 295.868513 94.166823 
L 297.05582 91.262615 
L 298.005666 88.379032 
L 298.71805 85.572361 
L 299.074243 83.498154 
L 299.074243 83.498154 
" clip-path="url(#p5e0bf3033b)" style="fill: none; stroke: #000000; stroke-opacity: 0.875; stroke-width: 1.05; stroke-linecap: square"/>
   </g>
   <g id="line2d_41">
    <path d="M 180.343499 72.117361 
L 180.818422 75.411072 
L 181.649537 79.413454 
L 182.718114 83.504385 
L 184.024152 87.652572 
L 185.567652 91.795675 
L 187.229882 95.621891 
L 189.010843 99.183286 
L 190.910535 102.509458 
L 192.928958 105.618963 
L 195.066111 108.524463 
L 197.440726 111.369055 
L 199.934072 113.994842 
L 202.546148 116.413568 
L 205.276955 118.635136 
L 208.126493 120.668098 
L 211.094762 122.519896 
L 214.300492 124.256829 
L 217.624953 125.807542 
L 221.186875 127.221598 
L 224.867528 128.445288 
L 228.785642 129.510615 
L 232.822488 130.37491 
L 236.978064 131.033712 
L 241.13364 131.467148 
L 245.289216 131.676429 
L 249.326061 131.65894 
L 253.244176 131.421217 
L 257.043559 130.964567 
L 260.605482 130.311791 
L 263.929943 129.481526 
L 267.135673 128.450957 
L 270.103941 127.266146 
L 272.953479 125.888321 
L 275.565555 124.386179 
L 278.058901 122.704682 
L 280.433516 120.841283 
L 282.6894 118.793486 
L 284.826553 116.558785 
L 286.844976 114.134463 
L 288.744668 111.517207 
L 290.525629 108.702354 
L 292.18786 105.682511 
L 293.731359 102.44485 
L 295.156128 98.965426 
L 296.462166 95.195496 
L 297.530743 91.482718 
L 298.361858 87.916304 
L 298.955512 84.519256 
L 299.074243 83.498154 
L 299.074243 83.498154 
" clip-path="url(#p5e0bf3033b)" style="fill: none; stroke: #000000; stroke-width: 1.05; stroke-linecap: square"/>
   </g>
   <g id="matplotlib.axis_3">
    <g id="xtick_6">
     <g id="line2d_42">
      <g>
       <use xlink:href="#m9d091e621e" x="180.343499" y="143.234592" style="stroke: #000000; stroke-width: 0.56"/>
      </g>
     </g>
     <g id="text_13">
      <text style="font-size: 7px; font-family: 'DejaVu Sans', 'Bitstream Vera Sans', 'Computer Modern Sans Serif', 'Lucida Grande', 'Verdana', 'Geneva', 'Lucid', 'Arial', 'Helvetica', 'Avant Garde', sans-serif; text-anchor: middle" x="180.343499" y="153.453499" transform="rotate(-0 180.343499 153.453499)">−1.0</text>
     </g>
    </g>
    <g id="xtick_7">
     <g id="line2d_43">
      <g>
       <use xlink:href="#m9d091e621e" x="210.026185" y="143.234592" style="stroke: #000000; stroke-width: 0.56"/>
      </g>
     </g>
     <g id="text_14">
      <text style="font-size: 7px; font-family: 'DejaVu Sans', 'Bitstream Vera Sans', 'Computer Modern Sans Serif', 'Lucida Grande', 'Verdana', 'Geneva', 'Lucid', 'Arial', 'Helvetica', 'Avant Garde', sans-serif; text-anchor: middle" x="210.026185" y="153.453499" transform="rotate(-0 210.026185 153.453499)">−0.5</text>
     </g>
    </g>
    <g id="xtick_8">
     <g id="line2d_44">
      <g>
       <use xlink:href="#m9d091e621e" x="239.708871" y="143.234592" style="stroke: #000000; stroke-width: 0.56"/>
      </g>
     </g>
     <g id="text_15">
      <text style="font-size: 7px; font-family: 'DejaVu Sans', 'Bitstream Vera Sans', 'Computer Modern Sans Serif', 'Lucida Grande', 'Verdana', 'Geneva', 'Lucid', 'Arial', 'Helvetica', 'Avant Garde', sans-serif; text-anchor: middle" x="239.708871" y="153.453499" transform="rotate(-0 239.708871 153.453499)">0.0</text>
     </g>
    </g>
    <g id="xtick_9">
     <g id="line2d_45">
      <g>
       <use xlink:href="#m9d091e621e" x="269.391557" y="143.234592" style="stroke: #000000; stroke-width: 0.56"/>
      </g>
     </g>
     <g id="text_16">
      <text style="font-size: 7px; font-family: 'DejaVu Sans', 'Bitstream Vera Sans', 'Computer Modern Sans Serif', 'Lucida Grande', 'Verdana', 'Geneva', 'Lucid', 'Arial', 'Helvetica', 'Avant Garde', sans-serif; text-anchor: middle" x="269.391557" y="153.453499" transform="rotate(-0 269.391557 153.453499)">0.5</text>
     </g>
    </g>
    <g id="xtick_10">
     <g id="line2d_46">
      <g>
       <use xlink:href="#m9d091e621e" x="299.074243" y="143.234592" style="stroke: #000000; stroke-width: 0.56"/>
      </g>
     </g>
     <g id="text_17">
      <text style="font-size: 7px; font-family: 'DejaVu Sans', 'Bitstream Vera Sans', 'Computer Modern Sans Serif', 'Lucida Grande', 'Verdana', 'Geneva', 'Lucid', 'Arial', 'Helvetica', 'Avant Garde', sans-serif; text-anchor: middle" x="299.074243" y="153.453499" transform="rotate(-0 299.074243 153.453499)">1.0</text>
     </g>
    </g>
   </g>
   <g id="matplotlib.axis_4">
    <g id="ytick_7">
     <g id="line2d_47">
      <g>
       <use xlink:href="#m6b7c94fd4d" x="176.187923" y="134.711719" style="stroke: #000000; stroke-width: 0.56"/>
      </g>
     </g>
    </g>
    <g id="ytick_8">
     <g id="line2d_48">
      <g>
       <use xlink:href="#m6b7c94fd4d" x="176.187923" y="111.950134" style="stroke: #000000; stroke-width: 0.56"/>
      </g>
     </g>
    </g>
    <g id="ytick_9">
     <g id="line2d_49">
      <g>
       <use xlink:href="#m6b7c94fd4d" x="176.187923" y="89.18855" style="stroke: #000000; stroke-width: 0.56"/>
      </g>
     </g>
    </g>
    <g id="ytick_10">
     <g id="line2d_50">
      <g>
       <use xlink:href="#m6b7c94fd4d" x="176.187923" y="66.426965" style="stroke: #000000; stroke-width: 0.56"/>
      </g>
     </g>
    </g>
    <g id="ytick_11">
     <g id="line2d_51">
      <g>
       <use xlink:href="#m6b7c94fd4d" x="176.187923" y="43.66538" style="stroke: #000000; stroke-width: 0.56"/>
      </g>
     </g>
    </g>
    <g id="ytick_12">
     <g id="line2d_52">
      <g>
       <use xlink:href="#m6b7c94fd4d" x="176.187923" y="20.903796" style="stroke: #000000; stroke-width: 0.56"/>
      </g>
     </g>
    </g>
   </g>
   <g id="line2d_53">
    <path d="M 180.343499 72.117361 
L 236.740602 20.761536 
L 299.074243 83.498154 
" clip-path="url(#p5e0bf3033b)" style="fill: none"/>
    <g clip-path="url(#p5e0bf3033b)">
     <use xlink:href="#m24f96156d0" x="180.343499" y="72.117361" style="fill: #ffffff; stroke: #000000; stroke-width: 0.2"/>
     <use xlink:href="#m24f96156d0" x="236.740602" y="20.761536" style="fill: #ffffff; stroke: #000000; stroke-width: 0.2"/>
     <use xlink:href="#m24f96156d0" x="299.074243" y="83.498154" style="fill: #ffffff; stroke: #000000; stroke-width: 0.2"/>
    </g>
   </g>
   <g id="line2d_54">
    <path d="M 180.352399 72.119066 
L 235.997323 36.50307 
L 299.070972 83.49878 
" clip-path="url(#p5e0bf3033b)" style="fill: none"/>
    <g clip-path="url(#p5e0bf3033b)">
     <use xlink:href="#m24f96156d0" x="180.352399" y="72.119066" style="fill: #ffffff; stroke: #000000; stroke-width: 0.2"/>
     <use xlink:href="#m24f96156d0" x="235.997323" y="36.50307" style="fill: #ffffff; stroke: #000000; stroke-width: 0.2"/>
     <use xlink:href="#m24f96156d0" x="299.070972" y="83.49878" style="fill: #ffffff; stroke: #000000; stroke-width: 0.2"/>
    </g>
   </g>
   <g id="line2d_55">
    <path d="M 181.461522 72.527877 
L 234.754054 52.220768 
L 298.419509 83.742961 
" clip-path="url(#p5e0bf3033b)" style="fill: none"/>
    <g clip-path="url(#p5e0bf3033b)">
     <use xlink:href="#m24f96156d0" x="181.461522" y="72.527877" style="fill: #ffffff; stroke: #000000; stroke-width: 0.2"/>
     <use xlink:href="#m24f96156d0" x="234.754054" y="52.220768" style="fill: #ffffff; stroke: #000000; stroke-width: 0.2"/>
     <use xlink:href="#m24f96156d0" x="298.419509" y="83.742961" style="fill: #ffffff; stroke: #000000; stroke-width: 0.2"/>
    </g>
   </g>
   <g id="line2d_56">
    <path d="M 187.307688 75.461795 
L 232.228236 67.87811 
L 294.648862 85.775723 
" clip-path="url(#p5e0bf3033b)" style="fill: none"/>
    <g clip-path="url(#p5e0bf3033b)">
     <use xlink:href="#m24f96156d0" x="187.307688" y="75.461795" style="fill: #ffffff; stroke: #000000; stroke-width: 0.2"/>
     <use xlink:href="#m24f96156d0" x="232.228236" y="67.87811" style="fill: #ffffff; stroke: #000000; stroke-width: 0.2"/>
     <use xlink:href="#m24f96156d0" x="294.648862" y="85.775723" style="fill: #ffffff; stroke: #000000; stroke-width: 0.2"/>
    </g>
   </g>
   <g id="line2d_57">
    <path d="M 193.537863 78.691216 
L 229.581306 75.644119 
L 290.924576 88.090716 
" clip-path="url(#p5e0bf3033b)" style="fill: none"/>
    <g clip-path="url(#p5e0bf3033b)">
     <use xlink:href="#m24f96156d0" x="193.537863" y="78.691216" style="fill: #ffffff; stroke: #000000; stroke-width: 0.2"/>
     <use xlink:href="#m24f96156d0" x="229.581306" y="75.644119" style="fill: #ffffff; stroke: #000000; stroke-width: 0.2"/>
     <use xlink:href="#m24f96156d0" x="290.924576" y="88.090716" style="fill: #ffffff; stroke: #000000; stroke-width: 0.2"/>
    </g>
   </g>
   <g id="line2d_58">
    <path d="M 205.268347 83.539732 
L 223.020885 83.26308 
L 285.646754 91.513826 
" clip-path="url(#p5e0bf3033b)" style="fill: none"/>
    <g clip-path="url(#p5e0bf3033b)">
     <use xlink:href="#m24f96156d0" x="205.268347" y="83.539732" style="fill: #ffffff; stroke: #000000; stroke-width: 0.2"/>
     <use xlink:href="#m24f96156d0" x="223.020885" y="83.26308" style="fill: #ffffff; stroke: #000000; stroke-width: 0.2"/>
     <use xlink:href="#m24f96156d0" x="285.646754" y="91.513826" style="fill: #ffffff; stroke: #000000; stroke-width: 0.2"/>
    </g>
   </g>
   <g id="line2d_59">
    <path d="M 278.481599 96.143127 
" clip-path="url(#p5e0bf3033b)" style="fill: none"/>
    <g clip-path="url(#p5e0bf3033b)">
     <use xlink:href="#m24f96156d0" x="278.481599" y="96.143127" style="fill: #ffffff; stroke: #000000; stroke-width: 0.2"/>
    </g>
   </g>
   <g id="line2d_60">
    <path d="M 269.514448 101.973261 
L 269.487164 101.973257 
L 269.514448 101.973261 
" clip-path="url(#p5e0bf3033b)" style="fill: none"/>
    <g clip-path="url(#p5e0bf3033b)">
     <use xlink:href="#m24f96156d0" x="269.514448" y="101.973261" style="fill: #ffffff; stroke: #000000; stroke-width: 0.2"/>
     <use xlink:href="#m24f96156d0" x="269.487164" y="101.973257" style="fill: #ffffff; stroke: #000000; stroke-width: 0.2"/>
     <use xlink:href="#m24f96156d0" x="269.514448" y="101.973261" style="fill: #ffffff; stroke: #000000; stroke-width: 0.2"/>
    </g>
   </g>
   <g id="line2d_61">
    <path d="M 253.133488 116.240996 
L 253.133488 116.240996 
L 253.133488 116.240996 
" clip-path="url(#p5e0bf3033b)" style="fill: none"/>
    <g clip-path="url(#p5e0bf3033b)">
     <use xlink:href="#m24f96156d0" x="253.133488" y="116.240996" style="fill: #ffffff; stroke: #000000; stroke-width: 0.2"/>
     <use xlink:href="#m24f96156d0" x="253.133488" y="116.240996" style="fill: #ffffff; stroke: #000000; stroke-width: 0.2"/>
     <use xlink:href="#m24f96156d0" x="253.133488" y="116.240996" style="fill: #ffffff; stroke: #000000; stroke-width: 0.2"/>
    </g>
   </g>
   <g id="line2d_62">
    <path d="M 247.000054 131.696195 
L 247.000054 131.696195 
L 247.000054 131.696195 
" clip-path="url(#p5e0bf3033b)" style="fill: none"/>
    <g clip-path="url(#p5e0bf3033b)">
     <use xlink:href="#m24f96156d0" x="247.000054" y="131.696195" style="fill: #ffffff; stroke: #000000; stroke-width: 0.2"/>
     <use xlink:href="#m24f96156d0" x="247.000054" y="131.696195" style="fill: #ffffff; stroke: #000000; stroke-width: 0.2"/>
     <use xlink:href="#m24f96156d0" x="247.000054" y="131.696195" style="fill: #ffffff; stroke: #000000; stroke-width: 0.2"/>
    </g>
   </g>
   <g id="patch_6">
    <path d="M 176.187923 143.234592 
L 176.187923 13.09024 
" style="fill: none; stroke: #000000; stroke-width: 0.56; stroke-linejoin: miter; stroke-linecap: square"/>
   </g>
   <g id="patch_7">
    <path d="M 176.187923 143.234592 
L 303.229819 143.234592 
" style="fill: none; stroke: #000000; stroke-width: 0.56; stroke-linejoin: miter; stroke-linecap: square"/>
   </g>
   <g id="text_18">
    <!-- External field $\frac{h}{J}=0.05$ -->
    <g transform="translate(201.243871 8.89024)">
     <text>
      <tspan x="0" y="-0.21875" style="font-size: 7px; font-family: 'DejaVu Sans'">E</tspan>
      <tspan x="4.422852" y="-0.21875" style="font-size: 7px; font-family: 'DejaVu Sans'">x</tspan>
      <tspan x="8.56543" y="-0.21875" style="font-size: 7px; font-family: 'DejaVu Sans'">t</tspan>
      <tspan x="11.310059" y="-0.21875" style="font-size: 7px; font-family: 'DejaVu Sans'">e</tspan>
      <tspan x="15.616699" y="-0.21875" style="font-size: 7px; font-family: 'DejaVu Sans'">r</tspan>
      <tspan x="18.494629" y="-0.21875" style="font-size: 7px; font-family: 'DejaVu Sans'">n</tspan>
      <tspan x="22.931152" y="-0.21875" style="font-size: 7px; font-family: 'DejaVu Sans'">a</tspan>
      <tspan x="27.220703" y="-0.21875" style="font-size: 7px; font-family: 'DejaVu Sans'">l</tspan>
      <tspan x="29.165527" y="-0.21875" style="font-size: 7px; font-family: 'DejaVu Sans'"> </tspan>
      <tspan x="31.390625" y="-0.21875" style="font-size: 7px; font-family: 'DejaVu Sans'">f</tspan>
      <tspan x="33.85498" y="-0.21875" style="font-size: 7px; font-family: 'DejaVu Sans'">i</tspan>
      <tspan x="35.799805" y="-0.21875" style="font-size: 7px; font-family: 'DejaVu Sans'">e</tspan>
      <tspan x="40.106445" y="-0.21875" style="font-size: 7px; font-family: 'DejaVu Sans'">l</tspan>
      <tspan x="42.05127" y="-0.21875" style="font-size: 7px; font-family: 'DejaVu Sans'">d</tspan>
      <tspan x="46.494629" y="-0.21875" style="font-size: 7px; font-family: 'DejaVu Sans'"> </tspan>
      <tspan x="54.064062" y="-0.21875" style="font-size: 7px; font-family: 'DejaVu Sans'">=</tspan>
      <tspan x="61.293066" y="-0.21875" style="font-size: 7px; font-family: 'DejaVu Sans'">0</tspan>
      <tspan x="65.74668" y="-0.21875" style="font-size: 7px; font-family: 'DejaVu Sans'">.</tspan>
      <tspan x="67.971777" y="-0.21875" style="font-size: 7px; font-family: 'DejaVu Sans'">0</tspan>
      <tspan x="72.425391" y="-0.21875" style="font-size: 7px; font-family: 'DejaVu Sans'">5</tspan>
      <tspan x="48.719727" y="-3.28125" style="font-style: oblique; font-size: 4.9px; font-family: 'DejaVu Sans'">h</tspan>
      <tspan x="49.719727" y="2.482812" style="font-style: oblique; font-size: 4.9px; font-family: 'DejaVu Sans'">J</tspan>
     </text>
     <rect x="48.719727" y="-2.53125" width="3.105566" height="0.4375"/>
    </g>
   </g>
  </g>
  <g id="axes_3">
   <g id="patch_8">
    <path d="M 312.977157 143.234592 
L 440.019053 143.234592 
L 440.019053 13.09024 
L 312.977157 13.09024 
L 312.977157 143.234592 
z
" style="fill: none"/>
   </g>
   <g id="line2d_63">
    <path d="M 317.132733 49.355777 
L 320.575925 44.596557 
L 323.900386 40.364723 
L 327.224847 36.489791 
L 330.430577 33.091259 
L 333.517576 30.132253 
L 336.604575 27.480983 
L 339.572844 25.221896 
L 342.422382 23.320849 
L 345.27192 21.682014 
L 348.002727 20.357518 
L 350.733534 19.273839 
L 353.464341 18.430977 
L 356.076417 17.850102 
L 358.688494 17.489558 
L 361.30057 17.349347 
L 363.912646 17.429468 
L 366.524723 17.72992 
L 369.136799 18.250706 
L 371.748875 18.991823 
L 374.479683 20.002209 
L 377.21049 21.253414 
L 379.941297 22.745436 
L 382.790835 24.559079 
L 385.640372 26.634935 
L 388.608641 29.076115 
L 391.57691 31.801815 
L 394.663909 34.938361 
L 397.869639 38.521262 
L 401.075369 42.436027 
L 404.39983 46.846312 
L 407.843022 51.790356 
L 411.404944 57.307764 
L 414.966866 63.23488 
L 418.647519 69.789989 
L 422.446903 77.015427 
L 426.365018 84.954895 
L 430.401863 93.653462 
L 434.438708 102.878277 
L 435.863477 106.259738 
L 435.863477 106.259738 
" clip-path="url(#pd3fee7992a)" style="fill: none; stroke: #000000; stroke-opacity: 0.125; stroke-width: 1.05; stroke-linecap: square"/>
   </g>
   <g id="line2d_64">
    <path d="M 317.132733 49.355777 
L 317.488926 49.310548 
L 318.438772 48.88365 
L 320.338463 47.738429 
L 325.443885 44.294487 
L 330.311846 41.145923 
L 334.22996 38.874493 
L 337.791883 37.062982 
L 341.116344 35.61239 
L 344.322074 34.446374 
L 347.527804 33.518069 
L 350.614803 32.855274 
L 353.701802 32.424141 
L 356.670071 32.231619 
L 359.63834 32.259523 
L 362.606608 32.510012 
L 365.574877 32.984788 
L 368.543145 33.685157 
L 371.511414 34.612074 
L 374.479683 35.766179 
L 377.566682 37.207809 
L 380.653681 38.895581 
L 383.859411 40.908483 
L 387.065141 43.185804 
L 390.389602 45.825539 
L 393.714063 48.746609 
L 397.157255 52.06599 
L 400.719177 55.810892 
L 404.39983 60.007562 
L 408.199214 64.680376 
L 412.117328 69.850363 
L 416.272904 75.705015 
L 420.784673 82.460994 
L 425.890095 90.531294 
L 435.507285 105.873085 
L 435.863477 106.259738 
L 435.863477 106.259738 
" clip-path="url(#pd3fee7992a)" style="fill: none; stroke: #000000; stroke-opacity: 0.25; stroke-width: 1.05; stroke-linecap: square"/>
   </g>
   <g id="line2d_65">
    <path d="M 317.132733 49.355777 
L 317.488926 49.775406 
L 318.20131 50.17561 
L 319.151156 50.439997 
L 320.457194 50.568501 
L 322.238155 50.510191 
L 324.731501 50.189519 
L 328.649616 49.434798 
L 338.622998 47.442049 
L 343.016035 46.828556 
L 347.052881 46.489716 
L 350.852265 46.395478 
L 354.532918 46.529607 
L 358.09484 46.882565 
L 361.656762 47.463753 
L 365.099954 48.248664 
L 368.543145 49.257315 
L 371.986337 50.492781 
L 375.548259 52.011561 
L 379.110182 53.776025 
L 382.672104 55.785896 
L 386.352757 58.118996 
L 390.152141 60.797292 
L 394.070255 63.841064 
L 398.107101 67.267901 
L 402.262677 71.091243 
L 406.655714 75.439545 
L 411.404944 80.461236 
L 416.747827 86.442565 
L 425.652633 96.821159 
L 430.164401 101.894235 
L 432.657747 104.395518 
L 434.201247 105.674461 
L 435.151093 106.230509 
L 435.626016 106.348382 
L 435.863477 106.259738 
L 435.863477 106.259738 
" clip-path="url(#pd3fee7992a)" style="fill: none; stroke: #000000; stroke-opacity: 0.375; stroke-width: 1.05; stroke-linecap: square"/>
   </g>
   <g id="line2d_66">
    <path d="M 317.132733 49.355777 
L 317.488926 50.240264 
L 318.20131 51.344512 
L 319.151156 52.400267 
L 320.338463 53.390311 
L 321.763232 54.294333 
L 323.544194 55.149647 
L 325.681347 55.915338 
L 328.293423 56.604155 
L 331.736615 57.262466 
L 336.842037 57.982871 
L 348.59638 59.585201 
L 353.820533 60.559134 
L 358.569763 61.66948 
L 363.081531 62.952447 
L 367.474569 64.433297 
L 371.867606 66.154196 
L 376.141913 68.065288 
L 380.53495 70.275043 
L 384.927988 72.731994 
L 389.439756 75.506331 
L 394.188986 78.688641 
L 399.294408 82.385412 
L 404.874753 86.707784 
L 411.879867 92.432704 
L 422.803095 101.378426 
L 426.365018 103.990593 
L 428.977094 105.643488 
L 430.995517 106.661204 
L 432.539016 107.192943 
L 433.726324 107.367994 
L 434.557439 107.292049 
L 435.151093 107.065357 
L 435.626016 106.676768 
L 435.863477 106.259738 
L 435.863477 106.259738 
" clip-path="url(#pd3fee7992a)" style="fill: none; stroke: #000000; stroke-opacity: 0.5; stroke-width: 1.05; stroke-linecap: square"/>
   </g>
   <g id="line2d_67">
    <path d="M 317.132733 49.355777 
L 317.607656 50.754076 
L 318.438772 52.329056 
L 319.507348 53.842925 
L 320.813386 55.292326 
L 322.356886 56.661114 
L 324.137847 57.937685 
L 326.275001 59.18017 
L 328.768346 60.35808 
L 331.736615 61.505908 
L 335.535999 62.722455 
L 340.997613 64.213619 
L 355.245302 68.01079 
L 360.944378 69.808986 
L 366.287261 71.729158 
L 371.392683 73.802768 
L 376.379374 76.066909 
L 381.484796 78.633834 
L 386.708949 81.516639 
L 392.170563 84.791679 
L 398.107101 88.61893 
L 405.230945 93.490056 
L 419.359904 103.22594 
L 423.159287 105.524055 
L 426.008825 106.99985 
L 428.264709 107.930014 
L 430.045671 108.444184 
L 431.58917 108.661496 
L 432.776478 108.619786 
L 433.726324 108.393972 
L 434.557439 107.98113 
L 435.151093 107.482781 
L 435.626016 106.840961 
L 435.863477 106.259738 
L 435.863477 106.259738 
" clip-path="url(#pd3fee7992a)" style="fill: none; stroke: #000000; stroke-opacity: 0.5625; stroke-width: 1.05; stroke-linecap: square"/>
   </g>
   <g id="line2d_68">
    <path d="M 317.132733 49.355777 
L 317.607656 51.050862 
L 318.438772 53.018137 
L 319.507348 54.958688 
L 320.813386 56.865166 
L 322.356886 58.714828 
L 324.137847 60.489339 
L 326.15627 62.177795 
L 328.412154 63.776911 
L 331.02423 65.357378 
L 334.11123 66.96138 
L 337.910614 68.672526 
L 342.897305 70.654443 
L 351.802111 73.901209 
L 361.538032 77.533733 
L 368.305684 80.299898 
L 374.598413 83.113491 
L 380.772412 86.119645 
L 387.183872 89.494333 
L 394.188986 93.439593 
L 404.043638 99.278253 
L 413.185905 104.620652 
L 417.816404 107.072114 
L 421.259596 108.654937 
L 423.990403 109.68153 
L 426.246287 110.309702 
L 428.145979 110.625101 
L 429.808209 110.682471 
L 431.232978 110.509824 
L 432.420285 110.149802 
L 433.488862 109.586491 
L 434.319977 108.915479 
L 435.032362 108.076646 
L 435.626016 107.005154 
L 435.863477 106.259738 
L 435.863477 106.259738 
" clip-path="url(#pd3fee7992a)" style="fill: none; stroke: #000000; stroke-opacity: 0.625; stroke-width: 1.05; stroke-linecap: square"/>
   </g>
   <g id="line2d_69">
    <path d="M 317.132733 49.355777 
L 317.607656 51.347649 
L 318.438772 53.707218 
L 319.507348 56.07445 
L 320.813386 58.438006 
L 322.356886 60.768541 
L 324.137847 63.040994 
L 326.15627 65.237972 
L 328.412154 67.349978 
L 330.9055 69.37492 
L 333.755037 71.396631 
L 337.079498 73.469247 
L 340.997613 75.635055 
L 345.865573 78.054141 
L 352.633226 81.144055 
L 374.954606 91.164964 
L 383.740681 95.454808 
L 394.545178 101.000422 
L 406.774445 107.243904 
L 412.117328 109.715195 
L 416.035443 111.29751 
L 419.241173 112.367483 
L 421.97198 113.053195 
L 424.346595 113.419937 
L 426.365018 113.508442 
L 428.145979 113.362285 
L 429.689478 113.01245 
L 430.995517 112.503281 
L 432.182824 111.813922 
L 433.251401 110.939463 
L 434.201247 109.866195 
L 435.032362 108.55132 
L 435.626016 107.169347 
L 435.863477 106.259738 
L 435.863477 106.259738 
" clip-path="url(#pd3fee7992a)" style="fill: none; stroke: #000000; stroke-opacity: 0.6875; stroke-width: 1.05; stroke-linecap: square"/>
   </g>
   <g id="line2d_70">
    <path d="M 317.132733 49.355777 
L 317.607656 51.644435 
L 318.438772 54.3963 
L 319.507348 57.190213 
L 320.813386 60.010846 
L 322.356886 62.822255 
L 324.137847 65.592648 
L 326.15627 68.298148 
L 328.293423 70.793543 
L 330.668038 73.231477 
L 333.398845 75.704361 
L 336.367114 78.087668 
L 339.691575 80.473476 
L 343.609689 83.001589 
L 348.121457 85.642555 
L 353.701802 88.644441 
L 361.30057 92.463889 
L 376.260644 99.675629 
L 396.207409 109.114868 
L 403.093792 112.119443 
L 408.080483 114.064298 
L 412.117328 115.410171 
L 415.56052 116.326083 
L 418.410058 116.865248 
L 420.903403 117.124242 
L 423.159287 117.139181 
L 425.17771 116.927845 
L 426.958671 116.517754 
L 428.502171 115.947466 
L 429.92694 115.195395 
L 431.232978 114.259862 
L 432.420285 113.137231 
L 433.488862 111.818016 
L 434.438708 110.276008 
L 435.151093 108.735053 
L 435.626016 107.33354 
L 435.863477 106.259738 
L 435.863477 106.259738 
" clip-path="url(#pd3fee7992a)" style="fill: none; stroke: #000000; stroke-opacity: 0.75; stroke-width: 1.05; stroke-linecap: square"/>
   </g>
   <g id="line2d_71">
    <path d="M 317.132733 49.355777 
L 317.607656 52.238008 
L 318.438772 55.774462 
L 319.626079 59.788435 
L 321.050848 63.775548 
L 322.713078 67.726698 
L 324.494039 71.390196 
L 326.512462 75.027003 
L 328.649616 78.427671 
L 331.02423 81.786907 
L 333.636307 85.081773 
L 336.367114 88.170402 
L 339.335382 91.197293 
L 342.541113 94.15536 
L 346.103035 97.137844 
L 350.021149 100.122654 
L 354.295456 103.097474 
L 359.044686 106.129861 
L 364.268839 109.201651 
L 370.086645 112.35945 
L 376.260644 115.452575 
L 382.434642 118.296813 
L 388.252449 120.736113 
L 393.476602 122.694178 
L 398.225831 124.239445 
L 402.381407 125.362034 
L 406.06206 126.132799 
L 409.386521 126.605475 
L 412.35479 126.807618 
L 415.085597 126.770399 
L 417.578942 126.510064 
L 419.834827 126.049638 
L 421.853249 125.41968 
L 423.752941 124.600385 
L 425.533902 123.591285 
L 427.196133 122.392574 
L 428.739632 121.00481 
L 430.164401 119.428278 
L 431.470439 117.661682 
L 432.657747 115.699282 
L 433.726324 113.52386 
L 434.67617 111.085404 
L 435.388554 108.686738 
L 435.863477 106.259738 
L 435.863477 106.259738 
" clip-path="url(#pd3fee7992a)" style="fill: none; stroke: #000000; stroke-opacity: 0.875; stroke-width: 1.05; stroke-linecap: square"/>
   </g>
   <g id="line2d_72">
    <path d="M 317.132733 49.355777 
L 317.607656 52.831581 
L 318.438772 57.152624 
L 319.626079 62.107973 
L 321.050848 67.076446 
L 322.713078 72.041961 
L 324.494039 76.680796 
L 326.512462 81.316488 
L 328.649616 85.675889 
L 331.02423 90.001672 
L 333.517576 94.074406 
L 336.129652 97.921923 
L 338.97919 101.71641 
L 341.947459 105.297176 
L 345.153189 108.807585 
L 348.47765 112.117556 
L 352.039572 115.346647 
L 355.720225 118.387502 
L 359.63834 121.338183 
L 363.793916 124.18421 
L 368.068222 126.839105 
L 372.46126 129.303425 
L 376.854297 131.513586 
L 381.247335 133.473632 
L 385.521642 135.135357 
L 389.558487 136.469746 
L 393.357871 137.498908 
L 396.919793 138.242325 
L 400.244254 138.718898 
L 403.449984 138.952874 
L 406.418253 138.943795 
L 409.14906 138.715411 
L 411.761136 138.269878 
L 414.135751 137.642847 
L 416.391635 136.820936 
L 418.528788 135.806831 
L 420.547211 134.604266 
L 422.446903 133.218188 
L 424.227864 131.654911 
L 426.008825 129.787061 
L 427.671056 127.710752 
L 429.214555 125.426708 
L 430.639324 122.933523 
L 431.945362 120.224746 
L 433.13267 117.282221 
L 434.201247 114.057929 
L 435.032362 110.924691 
L 435.626016 107.990313 
L 435.863477 106.259738 
L 435.863477 106.259738 
" clip-path="url(#pd3fee7992a)" style="fill: none; stroke: #000000; stroke-width: 1.05; stroke-linecap: square"/>
   </g>
   <g id="matplotlib.axis_5">
    <g id="xtick_11">
     <g id="line2d_73">
      <g>
       <use xlink:href="#m9d091e621e" x="317.132733" y="143.234592" style="stroke: #000000; stroke-width: 0.56"/>
      </g>
     </g>
     <g id="text_19">
      <text style="font-size: 7px; font-family: 'DejaVu Sans', 'Bitstream Vera Sans', 'Computer Modern Sans Serif', 'Lucida Grande', 'Verdana', 'Geneva', 'Lucid', 'Arial', 'Helvetica', 'Avant Garde', sans-serif; text-anchor: middle" x="317.132733" y="153.453499" transform="rotate(-0 317.132733 153.453499)">−1.0</text>
     </g>
    </g>
    <g id="xtick_12">
     <g id="line2d_74">
      <g>
       <use xlink:href="#m9d091e621e" x="346.815419" y="143.234592" style="stroke: #000000; stroke-width: 0.56"/>
      </g>
     </g>
     <g id="text_20">
      <text style="font-size: 7px; font-family: 'DejaVu Sans', 'Bitstream Vera Sans', 'Computer Modern Sans Serif', 'Lucida Grande', 'Verdana', 'Geneva', 'Lucid', 'Arial', 'Helvetica', 'Avant Garde', sans-serif; text-anchor: middle" x="346.815419" y="153.453499" transform="rotate(-0 346.815419 153.453499)">−0.5</text>
     </g>
    </g>
    <g id="xtick_13">
     <g id="line2d_75">
      <g>
       <use xlink:href="#m9d091e621e" x="376.498105" y="143.234592" style="stroke: #000000; stroke-width: 0.56"/>
      </g>
     </g>
     <g id="text_21">
      <text style="font-size: 7px; font-family: 'DejaVu Sans', 'Bitstream Vera Sans', 'Computer Modern Sans Serif', 'Lucida Grande', 'Verdana', 'Geneva', 'Lucid', 'Arial', 'Helvetica', 'Avant Garde', sans-serif; text-anchor: middle" x="376.498105" y="153.453499" transform="rotate(-0 376.498105 153.453499)">0.0</text>
     </g>
    </g>
    <g id="xtick_14">
     <g id="line2d_76">
      <g>
       <use xlink:href="#m9d091e621e" x="406.180791" y="143.234592" style="stroke: #000000; stroke-width: 0.56"/>
      </g>
     </g>
     <g id="text_22">
      <text style="font-size: 7px; font-family: 'DejaVu Sans', 'Bitstream Vera Sans', 'Computer Modern Sans Serif', 'Lucida Grande', 'Verdana', 'Geneva', 'Lucid', 'Arial', 'Helvetica', 'Avant Garde', sans-serif; text-anchor: middle" x="406.180791" y="153.453499" transform="rotate(-0 406.180791 153.453499)">0.5</text>
     </g>
    </g>
    <g id="xtick_15">
     <g id="line2d_77">
      <g>
       <use xlink:href="#m9d091e621e" x="435.863477" y="143.234592" style="stroke: #000000; stroke-width: 0.56"/>
      </g>
     </g>
     <g id="text_23">
      <text style="font-size: 7px; font-family: 'DejaVu Sans', 'Bitstream Vera Sans', 'Computer Modern Sans Serif', 'Lucida Grande', 'Verdana', 'Geneva', 'Lucid', 'Arial', 'Helvetica', 'Avant Garde', sans-serif; text-anchor: middle" x="435.863477" y="153.453499" transform="rotate(-0 435.863477 153.453499)">1.0</text>
     </g>
    </g>
   </g>
   <g id="matplotlib.axis_6">
    <g id="ytick_13">
     <g id="line2d_78">
      <g>
       <use xlink:href="#m6b7c94fd4d" x="312.977157" y="134.711719" style="stroke: #000000; stroke-width: 0.56"/>
      </g>
     </g>
    </g>
    <g id="ytick_14">
     <g id="line2d_79">
      <g>
       <use xlink:href="#m6b7c94fd4d" x="312.977157" y="111.950134" style="stroke: #000000; stroke-width: 0.56"/>
      </g>
     </g>
    </g>
    <g id="ytick_15">
     <g id="line2d_80">
      <g>
       <use xlink:href="#m6b7c94fd4d" x="312.977157" y="89.18855" style="stroke: #000000; stroke-width: 0.56"/>
      </g>
     </g>
    </g>
    <g id="ytick_16">
     <g id="line2d_81">
      <g>
       <use xlink:href="#m6b7c94fd4d" x="312.977157" y="66.426965" style="stroke: #000000; stroke-width: 0.56"/>
      </g>
     </g>
    </g>
    <g id="ytick_17">
     <g id="line2d_82">
      <g>
       <use xlink:href="#m6b7c94fd4d" x="312.977157" y="43.66538" style="stroke: #000000; stroke-width: 0.56"/>
      </g>
     </g>
    </g>
    <g id="ytick_18">
     <g id="line2d_83">
      <g>
       <use xlink:href="#m6b7c94fd4d" x="312.977157" y="20.903796" style="stroke: #000000; stroke-width: 0.56"/>
      </g>
     </g>
    </g>
   </g>
   <g id="line2d_84">
    <path d="M 317.132733 49.355777 
L 361.656762 17.347298 
L 435.863477 106.259738 
" clip-path="url(#pd3fee7992a)" style="fill: none"/>
    <g clip-path="url(#pd3fee7992a)">
     <use xlink:href="#m24f96156d0" x="317.132733" y="49.355777" style="fill: #ffffff; stroke: #000000; stroke-width: 0.2"/>
     <use xlink:href="#m24f96156d0" x="361.656762" y="17.347298" style="fill: #ffffff; stroke: #000000; stroke-width: 0.2"/>
     <use xlink:href="#m24f96156d0" x="435.863477" y="106.259738" style="fill: #ffffff; stroke: #000000; stroke-width: 0.2"/>
    </g>
   </g>
   <g id="line2d_85">
    <path d="M 317.199103 49.368433 
L 357.78143 32.216125 
L 435.863035 106.259823 
" clip-path="url(#pd3fee7992a)" style="fill: none"/>
    <g clip-path="url(#pd3fee7992a)">
     <use xlink:href="#m24f96156d0" x="317.199103" y="49.368433" style="fill: #ffffff; stroke: #000000; stroke-width: 0.2"/>
     <use xlink:href="#m24f96156d0" x="357.78143" y="32.216125" style="fill: #ffffff; stroke: #000000; stroke-width: 0.2"/>
     <use xlink:href="#m24f96156d0" x="435.863035" y="106.259823" style="fill: #ffffff; stroke: #000000; stroke-width: 0.2"/>
    </g>
   </g>
   <g id="line2d_86">
    <path d="M 320.825022 50.573812 
L 350.507668 46.394507 
L 435.630184 106.348395 
" clip-path="url(#pd3fee7992a)" style="fill: none"/>
    <g clip-path="url(#pd3fee7992a)">
     <use xlink:href="#m24f96156d0" x="320.825022" y="50.573812" style="fill: #ffffff; stroke: #000000; stroke-width: 0.2"/>
     <use xlink:href="#m24f96156d0" x="350.507668" y="46.394507" style="fill: #ffffff; stroke: #000000; stroke-width: 0.2"/>
     <use xlink:href="#m24f96156d0" x="435.630184" y="106.348395" style="fill: #ffffff; stroke: #000000; stroke-width: 0.2"/>
    </g>
   </g>
   <g id="line2d_87">
    <path d="M 433.832594 107.369503 
" clip-path="url(#pd3fee7992a)" style="fill: none"/>
    <g clip-path="url(#pd3fee7992a)">
     <use xlink:href="#m24f96156d0" x="433.832594" y="107.369503" style="fill: #ffffff; stroke: #000000; stroke-width: 0.2"/>
    </g>
   </g>
   <g id="line2d_88">
    <path d="M 431.96032 108.671638 
" clip-path="url(#pd3fee7992a)" style="fill: none"/>
    <g clip-path="url(#pd3fee7992a)">
     <use xlink:href="#m24f96156d0" x="431.96032" y="108.671638" style="fill: #ffffff; stroke: #000000; stroke-width: 0.2"/>
    </g>
   </g>
   <g id="line2d_89">
    <path d="M 429.451494 110.690846 
" clip-path="url(#pd3fee7992a)" style="fill: none"/>
    <g clip-path="url(#pd3fee7992a)">
     <use xlink:href="#m24f96156d0" x="429.451494" y="110.690846" style="fill: #ffffff; stroke: #000000; stroke-width: 0.2"/>
    </g>
   </g>
   <g id="line2d_90">
    <path d="M 426.102819 113.510739 
L 426.097236 113.510739 
" clip-path="url(#pd3fee7992a)" style="fill: none"/>
    <g clip-path="url(#pd3fee7992a)">
     <use xlink:href="#m24f96156d0" x="426.102819" y="113.510739" style="fill: #ffffff; stroke: #000000; stroke-width: 0.2"/>
     <use xlink:href="#m24f96156d0" x="426.097236" y="113.510739" style="fill: #ffffff; stroke: #000000; stroke-width: 0.2"/>
    </g>
   </g>
   <g id="line2d_91">
    <path d="M 422.196071 117.161747 
L 422.196071 117.161747 
L 422.196071 117.161747 
" clip-path="url(#pd3fee7992a)" style="fill: none"/>
    <g clip-path="url(#pd3fee7992a)">
     <use xlink:href="#m24f96156d0" x="422.196071" y="117.161747" style="fill: #ffffff; stroke: #000000; stroke-width: 0.2"/>
     <use xlink:href="#m24f96156d0" x="422.196071" y="117.161747" style="fill: #ffffff; stroke: #000000; stroke-width: 0.2"/>
     <use xlink:href="#m24f96156d0" x="422.196071" y="117.161747" style="fill: #ffffff; stroke: #000000; stroke-width: 0.2"/>
    </g>
   </g>
   <g id="line2d_92">
    <path d="M 413.304253 126.821138 
L 413.304253 126.821138 
L 413.304253 126.821138 
" clip-path="url(#pd3fee7992a)" style="fill: none"/>
    <g clip-path="url(#pd3fee7992a)">
     <use xlink:href="#m24f96156d0" x="413.304253" y="126.821138" style="fill: #ffffff; stroke: #000000; stroke-width: 0.2"/>
     <use xlink:href="#m24f96156d0" x="413.304253" y="126.821138" style="fill: #ffffff; stroke: #000000; stroke-width: 0.2"/>
     <use xlink:href="#m24f96156d0" x="413.304253" y="126.821138" style="fill: #ffffff; stroke: #000000; stroke-width: 0.2"/>
    </g>
   </g>
   <g id="line2d_93">
    <path d="M 404.835053 138.977534 
L 404.835053 138.977534 
L 404.835053 138.977534 
" clip-path="url(#pd3fee7992a)" style="fill: none"/>
    <g clip-path="url(#pd3fee7992a)">
     <use xlink:href="#m24f96156d0" x="404.835053" y="138.977534" style="fill: #ffffff; stroke: #000000; stroke-width: 0.2"/>
     <use xlink:href="#m24f96156d0" x="404.835053" y="138.977534" style="fill: #ffffff; stroke: #000000; stroke-width: 0.2"/>
     <use xlink:href="#m24f96156d0" x="404.835053" y="138.977534" style="fill: #ffffff; stroke: #000000; stroke-width: 0.2"/>
    </g>
   </g>
   <g id="patch_9">
    <path d="M 312.977157 143.234592 
L 312.977157 13.09024 
" style="fill: none; stroke: #000000; stroke-width: 0.56; stroke-linejoin: miter; stroke-linecap: square"/>
   </g>
   <g id="patch_10">
    <path d="M 312.977157 143.234592 
L 440.019053 143.234592 
" style="fill: none; stroke: #000000; stroke-width: 0.56; stroke-linejoin: miter; stroke-linecap: square"/>
   </g>
   <g id="text_24">
    <!-- External field $\frac{h}{J}=0.25$ -->
    <g transform="translate(338.243105 8.89024)">
     <text>
      <tspan x="0" y="-0.21875" style="font-size: 7px; font-family: 'DejaVu Sans'">E</tspan>
      <tspan x="4.422852" y="-0.21875" style="font-size: 7px; font-family: 'DejaVu Sans'">x</tspan>
      <tspan x="8.56543" y="-0.21875" style="font-size: 7px; font-family: 'DejaVu Sans'">t</tspan>
      <tspan x="11.310059" y="-0.21875" style="font-size: 7px; font-family: 'DejaVu Sans'">e</tspan>
      <tspan x="15.616699" y="-0.21875" style="font-size: 7px; font-family: 'DejaVu Sans'">r</tspan>
      <tspan x="18.494629" y="-0.21875" style="font-size: 7px; font-family: 'DejaVu Sans'">n</tspan>
      <tspan x="22.931152" y="-0.21875" style="font-size: 7px; font-family: 'DejaVu Sans'">a</tspan>
      <tspan x="27.220703" y="-0.21875" style="font-size: 7px; font-family: 'DejaVu Sans'">l</tspan>
      <tspan x="29.165527" y="-0.21875" style="font-size: 7px; font-family: 'DejaVu Sans'"> </tspan>
      <tspan x="31.390625" y="-0.21875" style="font-size: 7px; font-family: 'DejaVu Sans'">f</tspan>
      <tspan x="33.85498" y="-0.21875" style="font-size: 7px; font-family: 'DejaVu Sans'">i</tspan>
      <tspan x="35.799805" y="-0.21875" style="font-size: 7px; font-family: 'DejaVu Sans'">e</tspan>
      <tspan x="40.106445" y="-0.21875" style="font-size: 7px; font-family: 'DejaVu Sans'">l</tspan>
      <tspan x="42.05127" y="-0.21875" style="font-size: 7px; font-family: 'DejaVu Sans'">d</tspan>
      <tspan x="46.494629" y="-0.21875" style="font-size: 7px; font-family: 'DejaVu Sans'"> </tspan>
      <tspan x="54.064062" y="-0.21875" style="font-size: 7px; font-family: 'DejaVu Sans'">=</tspan>
      <tspan x="61.293066" y="-0.21875" style="font-size: 7px; font-family: 'DejaVu Sans'">0</tspan>
      <tspan x="65.74668" y="-0.21875" style="font-size: 7px; font-family: 'DejaVu Sans'">.</tspan>
      <tspan x="67.596777" y="-0.21875" style="font-size: 7px; font-family: 'DejaVu Sans'">2</tspan>
      <tspan x="72.050391" y="-0.21875" style="font-size: 7px; font-family: 'DejaVu Sans'">5</tspan>
      <tspan x="48.719727" y="-3.28125" style="font-style: oblique; font-size: 4.9px; font-family: 'DejaVu Sans'">h</tspan>
      <tspan x="49.719727" y="2.482812" style="font-style: oblique; font-size: 4.9px; font-family: 'DejaVu Sans'">J</tspan>
     </text>
     <rect x="48.719727" y="-2.53125" width="3.105566" height="0.4375"/>
    </g>
   </g>
   <g id="legend_1">
    <g id="line2d_94">
     <path d="M 454.683243 54.567124 
L 459.583243 54.567124 
L 464.483243 54.567124 
" style="fill: none; stroke: #000000; stroke-opacity: 0.125; stroke-width: 1.05; stroke-linecap: square"/>
    </g>
    <g id="text_25">
     <!-- $T=0.0T_\mathrm{c}$ -->
     <g transform="translate(468.403243 56.796624)">
      <text>
       <tspan x="0" y="-0.796875" style="font-style: oblique; font-size: 7px; font-family: 'DejaVu Sans'">T</tspan>
       <tspan x="24.000977" y="-0.796875" style="font-style: oblique; font-size: 7px; font-family: 'DejaVu Sans'">T</tspan>
       <tspan x="5.639648" y="-0.796875" style="font-size: 7px; font-family: 'DejaVu Sans'">=</tspan>
       <tspan x="12.868652" y="-0.796875" style="font-size: 7px; font-family: 'DejaVu Sans'">0</tspan>
       <tspan x="17.322266" y="-0.796875" style="font-size: 7px; font-family: 'DejaVu Sans'">.</tspan>
       <tspan x="19.547363" y="-0.796875" style="font-size: 7px; font-family: 'DejaVu Sans'">0</tspan>
       <tspan x="28.276855" y="0.351562" style="font-size: 4.9px; font-family: 'DejaVu Sans'">c</tspan>
      </text>
     </g>
    </g>
    <g id="line2d_95">
     <path d="M 454.683243 63.791811 
L 459.583243 63.791811 
L 464.483243 63.791811 
" style="fill: none; stroke: #000000; stroke-opacity: 0.25; stroke-width: 1.05; stroke-linecap: square"/>
    </g>
    <g id="text_26">
     <!-- $T=0.2T_\mathrm{c}$ -->
     <g transform="translate(468.403243 66.021311)">
      <text>
       <tspan x="0" y="-0.796875" style="font-style: oblique; font-size: 7px; font-family: 'DejaVu Sans'">T</tspan>
       <tspan x="23.625977" y="-0.796875" style="font-style: oblique; font-size: 7px; font-family: 'DejaVu Sans'">T</tspan>
       <tspan x="5.639648" y="-0.796875" style="font-size: 7px; font-family: 'DejaVu Sans'">=</tspan>
       <tspan x="12.868652" y="-0.796875" style="font-size: 7px; font-family: 'DejaVu Sans'">0</tspan>
       <tspan x="17.322266" y="-0.796875" style="font-size: 7px; font-family: 'DejaVu Sans'">.</tspan>
       <tspan x="19.172363" y="-0.796875" style="font-size: 7px; font-family: 'DejaVu Sans'">2</tspan>
       <tspan x="27.901855" y="0.351562" style="font-size: 4.9px; font-family: 'DejaVu Sans'">c</tspan>
      </text>
     </g>
    </g>
    <g id="line2d_96">
     <path d="M 454.683243 73.016499 
L 459.583243 73.016499 
L 464.483243 73.016499 
" style="fill: none; stroke: #000000; stroke-opacity: 0.375; stroke-width: 1.05; stroke-linecap: square"/>
    </g>
    <g id="text_27">
     <!-- $T=0.4T_\mathrm{c}$ -->
     <g transform="translate(468.403243 75.245999)">
      <text>
       <tspan x="0" y="-0.796875" style="font-style: oblique; font-size: 7px; font-family: 'DejaVu Sans'">T</tspan>
       <tspan x="24.000977" y="-0.796875" style="font-style: oblique; font-size: 7px; font-family: 'DejaVu Sans'">T</tspan>
       <tspan x="5.639648" y="-0.796875" style="font-size: 7px; font-family: 'DejaVu Sans'">=</tspan>
       <tspan x="12.868652" y="-0.796875" style="font-size: 7px; font-family: 'DejaVu Sans'">0</tspan>
       <tspan x="17.322266" y="-0.796875" style="font-size: 7px; font-family: 'DejaVu Sans'">.</tspan>
       <tspan x="19.547363" y="-0.796875" style="font-size: 7px; font-family: 'DejaVu Sans'">4</tspan>
       <tspan x="28.276855" y="0.351562" style="font-size: 4.9px; font-family: 'DejaVu Sans'">c</tspan>
      </text>
     </g>
    </g>
    <g id="line2d_97">
     <path d="M 454.683243 82.241186 
L 459.583243 82.241186 
L 464.483243 82.241186 
" style="fill: none; stroke: #000000; stroke-opacity: 0.5; stroke-width: 1.05; stroke-linecap: square"/>
    </g>
    <g id="text_28">
     <!-- $T=0.6T_\mathrm{c}$ -->
     <g transform="translate(468.403243 84.470686)">
      <text>
       <tspan x="0" y="-0.796875" style="font-style: oblique; font-size: 7px; font-family: 'DejaVu Sans'">T</tspan>
       <tspan x="24.000977" y="-0.796875" style="font-style: oblique; font-size: 7px; font-family: 'DejaVu Sans'">T</tspan>
       <tspan x="5.639648" y="-0.796875" style="font-size: 7px; font-family: 'DejaVu Sans'">=</tspan>
       <tspan x="12.868652" y="-0.796875" style="font-size: 7px; font-family: 'DejaVu Sans'">0</tspan>
       <tspan x="17.322266" y="-0.796875" style="font-size: 7px; font-family: 'DejaVu Sans'">.</tspan>
       <tspan x="19.547363" y="-0.796875" style="font-size: 7px; font-family: 'DejaVu Sans'">6</tspan>
       <tspan x="28.276855" y="0.351562" style="font-size: 4.9px; font-family: 'DejaVu Sans'">c</tspan>
      </text>
     </g>
    </g>
    <g id="line2d_98">
     <path d="M 454.683243 91.465874 
L 459.583243 91.465874 
L 464.483243 91.465874 
" style="fill: none; stroke: #000000; stroke-opacity: 0.5625; stroke-width: 1.05; stroke-linecap: square"/>
    </g>
    <g id="text_29">
     <!-- $T=0.7T_\mathrm{c}$ -->
     <g transform="translate(468.403243 93.695374)">
      <text>
       <tspan x="0" y="-0.796875" style="font-style: oblique; font-size: 7px; font-family: 'DejaVu Sans'">T</tspan>
       <tspan x="23.500977" y="-0.796875" style="font-style: oblique; font-size: 7px; font-family: 'DejaVu Sans'">T</tspan>
       <tspan x="5.639648" y="-0.796875" style="font-size: 7px; font-family: 'DejaVu Sans'">=</tspan>
       <tspan x="12.868652" y="-0.796875" style="font-size: 7px; font-family: 'DejaVu Sans'">0</tspan>
       <tspan x="17.322266" y="-0.796875" style="font-size: 7px; font-family: 'DejaVu Sans'">.</tspan>
       <tspan x="19.047363" y="-0.796875" style="font-size: 7px; font-family: 'DejaVu Sans'">7</tspan>
       <tspan x="27.776855" y="0.351562" style="font-size: 4.9px; font-family: 'DejaVu Sans'">c</tspan>
      </text>
     </g>
    </g>
    <g id="line2d_99">
     <path d="M 454.683243 100.690561 
L 459.583243 100.690561 
L 464.483243 100.690561 
" style="fill: none; stroke: #000000; stroke-opacity: 0.625; stroke-width: 1.05; stroke-linecap: square"/>
    </g>
    <g id="text_30">
     <!-- $T=0.8T_\mathrm{c}$ -->
     <g transform="translate(468.403243 102.920061)">
      <text>
       <tspan x="0" y="-0.796875" style="font-style: oblique; font-size: 7px; font-family: 'DejaVu Sans'">T</tspan>
       <tspan x="23.875977" y="-0.796875" style="font-style: oblique; font-size: 7px; font-family: 'DejaVu Sans'">T</tspan>
       <tspan x="5.639648" y="-0.796875" style="font-size: 7px; font-family: 'DejaVu Sans'">=</tspan>
       <tspan x="12.868652" y="-0.796875" style="font-size: 7px; font-family: 'DejaVu Sans'">0</tspan>
       <tspan x="17.322266" y="-0.796875" style="font-size: 7px; font-family: 'DejaVu Sans'">.</tspan>
       <tspan x="19.422363" y="-0.796875" style="font-size: 7px; font-family: 'DejaVu Sans'">8</tspan>
       <tspan x="28.151855" y="0.351562" style="font-size: 4.9px; font-family: 'DejaVu Sans'">c</tspan>
      </text>
     </g>
    </g>
    <g id="line2d_100">
     <path d="M 454.683243 109.915249 
L 459.583243 109.915249 
L 464.483243 109.915249 
" style="fill: none; stroke: #000000; stroke-opacity: 0.6875; stroke-width: 1.05; stroke-linecap: square"/>
    </g>
    <g id="text_31">
     <!-- $T=0.9T_\mathrm{c}$ -->
     <g transform="translate(468.403243 112.144749)">
      <text>
       <tspan x="0" y="-0.796875" style="font-style: oblique; font-size: 7px; font-family: 'DejaVu Sans'">T</tspan>
       <tspan x="24.000977" y="-0.796875" style="font-style: oblique; font-size: 7px; font-family: 'DejaVu Sans'">T</tspan>
       <tspan x="5.639648" y="-0.796875" style="font-size: 7px; font-family: 'DejaVu Sans'">=</tspan>
       <tspan x="12.868652" y="-0.796875" style="font-size: 7px; font-family: 'DejaVu Sans'">0</tspan>
       <tspan x="17.322266" y="-0.796875" style="font-size: 7px; font-family: 'DejaVu Sans'">.</tspan>
       <tspan x="19.547363" y="-0.796875" style="font-size: 7px; font-family: 'DejaVu Sans'">9</tspan>
       <tspan x="28.276855" y="0.351562" style="font-size: 4.9px; font-family: 'DejaVu Sans'">c</tspan>
      </text>
     </g>
    </g>
    <g id="line2d_101">
     <path d="M 454.683243 119.139936 
L 459.583243 119.139936 
L 464.483243 119.139936 
" style="fill: none; stroke: #000000; stroke-opacity: 0.75; stroke-width: 1.05; stroke-linecap: square"/>
    </g>
    <g id="text_32">
     <!-- $T=1.0T_\mathrm{c}$ -->
     <g transform="translate(468.403243 121.369436)">
      <text>
       <tspan x="0" y="-0.796875" style="font-style: oblique; font-size: 7px; font-family: 'DejaVu Sans'">T</tspan>
       <tspan x="24.000977" y="-0.796875" style="font-style: oblique; font-size: 7px; font-family: 'DejaVu Sans'">T</tspan>
       <tspan x="5.639648" y="-0.796875" style="font-size: 7px; font-family: 'DejaVu Sans'">=</tspan>
       <tspan x="12.868652" y="-0.796875" style="font-size: 7px; font-family: 'DejaVu Sans'">1</tspan>
       <tspan x="17.322266" y="-0.796875" style="font-size: 7px; font-family: 'DejaVu Sans'">.</tspan>
       <tspan x="19.547363" y="-0.796875" style="font-size: 7px; font-family: 'DejaVu Sans'">0</tspan>
       <tspan x="28.276855" y="0.351562" style="font-size: 4.9px; font-family: 'DejaVu Sans'">c</tspan>
      </text>
     </g>
    </g>
    <g id="line2d_102">
     <path d="M 454.683243 128.364624 
L 459.583243 128.364624 
L 464.483243 128.364624 
" style="fill: none; stroke: #000000; stroke-opacity: 0.875; stroke-width: 1.05; stroke-linecap: square"/>
    </g>
    <g id="text_33">
     <!-- $T=1.2T_\mathrm{c}$ -->
     <g transform="translate(468.403243 130.594124)">
      <text>
       <tspan x="0" y="-0.796875" style="font-style: oblique; font-size: 7px; font-family: 'DejaVu Sans'">T</tspan>
       <tspan x="23.625977" y="-0.796875" style="font-style: oblique; font-size: 7px; font-family: 'DejaVu Sans'">T</tspan>
       <tspan x="5.639648" y="-0.796875" style="font-size: 7px; font-family: 'DejaVu Sans'">=</tspan>
       <tspan x="12.868652" y="-0.796875" style="font-size: 7px; font-family: 'DejaVu Sans'">1</tspan>
       <tspan x="17.322266" y="-0.796875" style="font-size: 7px; font-family: 'DejaVu Sans'">.</tspan>
       <tspan x="19.172363" y="-0.796875" style="font-size: 7px; font-family: 'DejaVu Sans'">2</tspan>
       <tspan x="27.901855" y="0.351562" style="font-size: 4.9px; font-family: 'DejaVu Sans'">c</tspan>
      </text>
     </g>
    </g>
    <g id="line2d_103">
     <path d="M 454.683243 137.589311 
L 459.583243 137.589311 
L 464.483243 137.589311 
" style="fill: none; stroke: #000000; stroke-width: 1.05; stroke-linecap: square"/>
    </g>
    <g id="text_34">
     <!-- $T=1.4T_\mathrm{c}$ -->
     <g transform="translate(468.403243 139.818811)">
      <text>
       <tspan x="0" y="-0.890625" style="font-style: oblique; font-size: 7px; font-family: 'DejaVu Sans'">T</tspan>
       <tspan x="24.000977" y="-0.890625" style="font-style: oblique; font-size: 7px; font-family: 'DejaVu Sans'">T</tspan>
       <tspan x="5.639648" y="-0.890625" style="font-size: 7px; font-family: 'DejaVu Sans'">=</tspan>
       <tspan x="12.868652" y="-0.890625" style="font-size: 7px; font-family: 'DejaVu Sans'">1</tspan>
       <tspan x="17.322266" y="-0.890625" style="font-size: 7px; font-family: 'DejaVu Sans'">.</tspan>
       <tspan x="19.547363" y="-0.890625" style="font-size: 7px; font-family: 'DejaVu Sans'">4</tspan>
       <tspan x="28.276855" y="0.257812" style="font-size: 4.9px; font-family: 'DejaVu Sans'">c</tspan>
      </text>
     </g>
    </g>
   </g>
  </g>
  <g id="text_35">
   <!-- Order parameter $m$ -->
   <g transform="translate(217.875 164.42976)">
    <text>
     <tspan x="0" y="-0.6875" style="font-size: 7px; font-family: 'DejaVu Sans'">O</tspan>
     <tspan x="5.509766" y="-0.6875" style="font-size: 7px; font-family: 'DejaVu Sans'">r</tspan>
     <tspan x="8.387695" y="-0.6875" style="font-size: 7px; font-family: 'DejaVu Sans'">d</tspan>
     <tspan x="12.831055" y="-0.6875" style="font-size: 7px; font-family: 'DejaVu Sans'">e</tspan>
     <tspan x="17.137695" y="-0.6875" style="font-size: 7px; font-family: 'DejaVu Sans'">r</tspan>
     <tspan x="20.015625" y="-0.6875" style="font-size: 7px; font-family: 'DejaVu Sans'"> </tspan>
     <tspan x="22.240723" y="-0.6875" style="font-size: 7px; font-family: 'DejaVu Sans'">p</tspan>
     <tspan x="26.684082" y="-0.6875" style="font-size: 7px; font-family: 'DejaVu Sans'">a</tspan>
     <tspan x="30.973633" y="-0.6875" style="font-size: 7px; font-family: 'DejaVu Sans'">r</tspan>
     <tspan x="33.851562" y="-0.6875" style="font-size: 7px; font-family: 'DejaVu Sans'">a</tspan>
     <tspan x="38.141113" y="-0.6875" style="font-size: 7px; font-family: 'DejaVu Sans'">m</tspan>
     <tspan x="44.959961" y="-0.6875" style="font-size: 7px; font-family: 'DejaVu Sans'">e</tspan>
     <tspan x="49.266602" y="-0.6875" style="font-size: 7px; font-family: 'DejaVu Sans'">t</tspan>
     <tspan x="52.01123" y="-0.6875" style="font-size: 7px; font-family: 'DejaVu Sans'">e</tspan>
     <tspan x="56.317871" y="-0.6875" style="font-size: 7px; font-family: 'DejaVu Sans'">r</tspan>
     <tspan x="59.195801" y="-0.6875" style="font-size: 7px; font-family: 'DejaVu Sans'"> </tspan>
     <tspan x="61.420898" y="-0.6875" style="font-style: oblique; font-size: 7px; font-family: 'DejaVu Sans'">m</tspan>
    </text>
   </g>
  </g>
  <g id="text_36">
   <!-- Effective free energy per spin $\frac{f\left(m\right)}{J}$ -->
   <g transform="translate(9.59024 142.8) rotate(-90)">
    <text>
     <tspan x="0" y="-0.573438" style="font-size: 7px; font-family: 'DejaVu Sans'">E</tspan>
     <tspan x="4.422852" y="-0.573438" style="font-size: 7px; font-family: 'DejaVu Sans'">f</tspan>
     <tspan x="6.887207" y="-0.573438" style="font-size: 7px; font-family: 'DejaVu Sans'">f</tspan>
     <tspan x="9.351562" y="-0.573438" style="font-size: 7px; font-family: 'DejaVu Sans'">e</tspan>
     <tspan x="13.658203" y="-0.573438" style="font-size: 7px; font-family: 'DejaVu Sans'">c</tspan>
     <tspan x="17.506836" y="-0.573438" style="font-size: 7px; font-family: 'DejaVu Sans'">t</tspan>
     <tspan x="20.251465" y="-0.573438" style="font-size: 7px; font-family: 'DejaVu Sans'">i</tspan>
     <tspan x="22.196289" y="-0.573438" style="font-size: 7px; font-family: 'DejaVu Sans'">v</tspan>
     <tspan x="26.338867" y="-0.573438" style="font-size: 7px; font-family: 'DejaVu Sans'">e</tspan>
     <tspan x="30.645508" y="-0.573438" style="font-size: 7px; font-family: 'DejaVu Sans'"> </tspan>
     <tspan x="32.870605" y="-0.573438" style="font-size: 7px; font-family: 'DejaVu Sans'">f</tspan>
     <tspan x="35.334961" y="-0.573438" style="font-size: 7px; font-family: 'DejaVu Sans'">r</tspan>
     <tspan x="38.212891" y="-0.573438" style="font-size: 7px; font-family: 'DejaVu Sans'">e</tspan>
     <tspan x="42.519531" y="-0.573438" style="font-size: 7px; font-family: 'DejaVu Sans'">e</tspan>
     <tspan x="46.826172" y="-0.573438" style="font-size: 7px; font-family: 'DejaVu Sans'"> </tspan>
     <tspan x="49.05127" y="-0.573438" style="font-size: 7px; font-family: 'DejaVu Sans'">e</tspan>
     <tspan x="53.35791" y="-0.573438" style="font-size: 7px; font-family: 'DejaVu Sans'">n</tspan>
     <tspan x="57.794434" y="-0.573438" style="font-size: 7px; font-family: 'DejaVu Sans'">e</tspan>
     <tspan x="62.101074" y="-0.573438" style="font-size: 7px; font-family: 'DejaVu Sans'">r</tspan>
     <tspan x="64.979004" y="-0.573438" style="font-size: 7px; font-family: 'DejaVu Sans'">g</tspan>
     <tspan x="69.422363" y="-0.573438" style="font-size: 7px; font-family: 'DejaVu Sans'">y</tspan>
     <tspan x="73.564941" y="-0.573438" style="font-size: 7px; font-family: 'DejaVu Sans'"> </tspan>
     <tspan x="75.790039" y="-0.573438" style="font-size: 7px; font-family: 'DejaVu Sans'">p</tspan>
     <tspan x="80.233398" y="-0.573438" style="font-size: 7px; font-family: 'DejaVu Sans'">e</tspan>
     <tspan x="84.540039" y="-0.573438" style="font-size: 7px; font-family: 'DejaVu Sans'">r</tspan>
     <tspan x="87.417969" y="-0.573438" style="font-size: 7px; font-family: 'DejaVu Sans'"> </tspan>
     <tspan x="89.643066" y="-0.573438" style="font-size: 7px; font-family: 'DejaVu Sans'">s</tspan>
     <tspan x="93.290039" y="-0.573438" style="font-size: 7px; font-family: 'DejaVu Sans'">p</tspan>
     <tspan x="97.733398" y="-0.573438" style="font-size: 7px; font-family: 'DejaVu Sans'">i</tspan>
     <tspan x="99.678223" y="-0.573438" style="font-size: 7px; font-family: 'DejaVu Sans'">n</tspan>
     <tspan x="104.114746" y="-0.573438" style="font-size: 7px; font-family: 'DejaVu Sans'"> </tspan>
     <tspan x="106.339844" y="-4.28125" style="font-style: oblique; font-size: 4.9px; font-family: 'DejaVu Sans'">f</tspan>
     <tspan x="109.976563" y="-4.28125" style="font-style: oblique; font-size: 4.9px; font-family: 'DejaVu Sans'">m</tspan>
     <tspan x="110.339844" y="2.128125" style="font-style: oblique; font-size: 4.9px; font-family: 'DejaVu Sans'">J</tspan>
     <tspan x="108.064893" y="-4.28125" style="font-size: 4.9px; font-family: 'DejaVu Sans'">(</tspan>
     <tspan x="114.749756" y="-4.28125" style="font-size: 4.9px; font-family: 'DejaVu Sans'">)</tspan>
    </text>
    <rect x="106.339844" y="-2.885938" width="10.321582" height="0.4375"/>
   </g>
  </g>
 </g>
 <defs>
  <clipPath id="p90db0dae57">
   <rect x="39.398689" y="13.09024" width="127.041896" height="130.144352"/>
  </clipPath>
  <clipPath id="p5e0bf3033b">
   <rect x="176.187923" y="13.09024" width="127.041896" height="130.144352"/>
  </clipPath>
  <clipPath id="pd3fee7992a">
   <rect x="312.977157" y="13.09024" width="127.041896" height="130.144352"/>
  </clipPath>
 </defs>
</svg>
